<svg width="121" height="62" viewBox="0 0 121 62" xmlns="http://www.w3.org/2000/svg" xmlns:xlink="http://www.w3.org/1999/xlink">
  <title>
    AAK_02_venstrejusteret_sh
  </title>
  <defs>
    <path id="a" d="M.05.66h43.62v39.5H.05z"/>
    <path id="c" d="M.05.24h43.6v28.87H.06z"/>
  </defs>
  <g fill="none" fill-rule="evenodd">
    <path d="M14.01 39.18l-.05-.1a.62.62 0 0 0-.08-.08s-.22.1-.31.22c-.18.26.17.82.17.82-.3-.1-.48-.35-.49-.52 0-.23.21-.75.21-.75.07-.2.14-.5.21-.8l.24-.96c.2-.7.5-1.5.66-2.2.13-.53.23-.98.26-1.3.07-.75.17-2.18.22-3.12l.02-.42c0-.12.07-1.39.67-1.92.4-.34.78-.28 1.23-.5 0 0-.65-.27-1.46-.1 0 0-1.4 1.1-2.06 5.99 0 0-.8 4.55-.84 5 0 .25.22 1.4.22 1.4s.7.3.86.28c.09-.04.21-.04.42-.1.2-.06.34-.07.7.04-.85-.38-.69-.67-.8-.88M19.94 22.86l.84.03c.25.01.4-.06.38-.23-.01-.13-.36-.2-.36-.2l-.61.1s-.08.25-.25.3M27.87 27.3c0-.08-.13-1.1-.13-1.9l-.01-.85c-.01-.24-.25-.13-.3-.04-.11.22-.16.17-.16.17s-.08-.01-.09.2c-.03-.16-.05-.14-.1-.19-.16-.16-.26.41-.26.41l-.02.4v.21c0 .3.02.84.2 1.23.03.07.07.1.12.1 0 0-.05.4.07.6.24.37.37.28.37.28.43-.35.3-.48.3-.63M17.9 26.33c0 .21.08.41.2.58-.2.2-.45.46-.5.53-.1.12-.28.17-.28.17s-.2 1.23.25 1.06c0 0 .08-.3.32-.24.42.1.53-.07.7-.2.1-.08.44 0 .44 0 .26-.07.57.06.62-.18V28c-.22-.18-.8-.1-.8-.1s.08-.03.21-.05c.04 0 .12 0 .13-.07 0 0 .05 0 .32.09.22.07.24-.04.25-.09 0-.08-.07-.14-.07-.14s-.28-.11-.42-.14c-.14-.02-.5.03-.5.03l.22-.06c.08-.02.16-.02.15-.08 0 0 .16.01.37.11.14.07.21.07.25.05.01-.03.05-.05.05-.08v-.04c-.01-.13-.13-.17-.13-.17s-.44-.16-.56-.17c-.12-.02-.5.08-.5.08.09-.07.2-.08.32-.1.18-.04.16-.13.16-.13s.03.05.39.16c.1.03.34.16.27-.07a.68.68 0 0 0-.11-.13.99.99 0 0 0-.77-1.56c-.06 0-.12.03-.19.04-.25.35-.56.69-.79.95m.63-.36a.5.5 0 0 1 .35-.14.5.5 0 0 1 .48.5c0 .17-.08.3-.2.4l-.1-.04c-.04-.03-.3-.01-.53 0l-.02-.02a.5.5 0 0 1 .02-.7M18.57 39.36c-.49-.35-1.76.25-1.76.25s-.23.54.24.53c.25 0 .7.02 1.04-.06.28-.05.7.06 1.08.06.55-.15-.6-.78-.6-.78M11.07 36.56c-.1.6-.34 1.67-.37 2.06-.04.38-.05 1.06-.05 1.06.15.09.33.16.4.19l.7-5.83s-.58 1.9-.68 2.52" fill="#333"/>
    <g>
      <mask id="b" fill="#fff">
        <use xlink:href="#a"/>
      </mask>
      <path d="M20.2 22.47l.6-.01c.41.03.54-.15.38-.32-.08-.09-.68-.08-.68-.08l-.39.14s.2.04.1.27" fill="#333" mask="url(#b)"/>
      <path d="M42.3 27.89l-.2-12.28h.86l-3.73-7.39a1.14 1.14 0 1 0-1.03 0l-3.73 7.4h.87l-.07 3.59-.22-.87a6.71 6.71 0 0 0-6.66-5.03 6.73 6.73 0 0 0-4.75-5.06V5.83H24l-1.77-3.48a.9.9 0 1 0-.8 0l-1.76 3.48h.36v2.42a6.73 6.73 0 0 0-4.74 5.06h-.17a6.71 6.71 0 0 0-6.5 5.03l-.22.87-.07-3.6h.87L5.47 8.22a1.14 1.14 0 1 0-1.03 0l-3.72 7.4h.86l-.21 12.27H.23L0 40.16h9.9L9.7 27.9v-5.6a13.39 13.39 0 0 1 .74-3.95 4.97 4.97 0 0 1 6.49-2.95 4.96 4.96 0 1 1 9.82 0 4.97 4.97 0 0 1 6.48 2.95 12.8 12.8 0 0 1 .75 3.96v5.59l-.21 12.27h9.9l-.23-12.27H42.3zm-38.2-9.5v-.14c.03-.45.4-.8.86-.8a.86.86 0 0 1 .86.8v4.84H4.1v-4.7zM3.7 37.8H2v-4.48-.07c.03-.44.4-.8.85-.8.45 0 .82.36.86.8V37.8zm1.26-5.92a1.3 1.3 0 1 1 0-2.59 1.3 1.3 0 0 1 0 2.59zm2.97 5.92h-1.7v-4.48-.07c.03-.44.4-.8.85-.8a.86.86 0 0 1 .85.87v4.48zm29.93-19.55c.01-.22.1-.4.25-.55a.86.86 0 0 1 1.46.55v4.84h-1.71v-4.84zm-.4 19.55h-1.72v-4.48-.07a.86.86 0 0 1 1.7 0l.01.07v4.48zm1.25-5.92a1.3 1.3 0 1 1 0-2.59 1.3 1.3 0 0 1 0 2.59zm2.98 5.92h-1.72v-4.48-.07c.04-.44.4-.8.86-.8.45 0 .82.36.85.8V37.8z" fill="#333" mask="url(#b)"/>
    </g>
    <path d="M23.6 24.8c.08 0 .2-.02.3-.06.18-.08.43-.3.54-.53a.47.47 0 0 0-.25-.49c-.09-.04-.14-.03-.24 0l-.29.13c.07-.06.04-.19.04-.19.15.1.77-.17.65-.9-.02-.15-.05-.19-.04-.27 0-.12.02-.22 0-.3-.03-.14.04-.38.03-.5-.01-.12-.2-.09-.27-.06-.25.12-.26.53-.29.65 0 0-.03 0-.07-.03-.06-.02-.07-.06-.13-.12a9.47 9.47 0 0 0-.77-.85c-.16-.15-.27-.02-.27.08-.02.12.3.55.3.55.24.33.31.36.31.36l-.06.06s.03-.04-.33-.42c-.04-.05-.36-.5-.49-.63s-.27 0-.29.05c-.08.17.44.8.44.8.23.32.42.44.42.44l-.08.07c.04-.04-.4-.51-.4-.51-.19-.19-.33-.43-.47-.54-.18-.13-.24.17-.15.3.03.05.1.18.23.35.12.16.54.57.54.57l-.04.03c-.1-.13-.44-.47-.67-.63-.23-.16-.3.05-.24.16.05.1.3.4.36.48.06.06.52.4.55.44l.2.3c.06.06.22.3.32.38 0 0 .2.12.31.07-.1.3 0 .66.3.75" fill="#333"/>
    <path d="M22.82 38.1l-.12.71c-.22 1.23.05 1.68.05 1.68s.4-.33.61-1.56l.88-4.96c-.11-.98-.17-1.9.07-2.13l.36-.3.22-1.3 1.14.43c-.46.18-.77.43-1.11.68-.68 1.05-.4 2.43-.33 2.89.08.54-.17 1.35-.17 1.35.12 1.3.33 2.07.33 2.07s.27.68.77.84c0 0-.53-.08-.61-.25 0 0-.14.14-.19.27 0 0-.5.33-.32.64-.17.18-.18.21-.4.35-.22.14-.26.17-.63.33-.13.05-.3.15-.34.24-.02.06.03.08.05.05.07-.09.18-.14.18-.14-.16.09-.15.18-.1.22h.02c.03.02.1 0 .16-.11.02-.06.08-.1.22-.15-.04.02-.29.12-.18.28.16.07.24-.14.27-.17.11-.11.2-.11.37-.16-.35.1-.39.17-.29.33.08.09.3.1.5.02.31 0 .78-.25 1.08-.27.11 0 .11 0 .3.06.1.04.42.04.47-.07.2-.37-.46-.8-.57-.85-.12-.06-.4-.26-.4-.26a4.81 4.81 0 0 0 1.13.45c.44.05.66-.17 1.08-.2 1-.9 1.18-1.37 1.5-2.75.12-.55.35-1.39.4-2.04-.04.86-.03 1.1-.02 1.42.03.53.09 2.26.05 2.55-.05.28-.2.35-.2.35s.26.65.83.73c.13.01.29 0 .46-.07 0 0 .56.43 1.4.15.12-.04.26-.1.41-.2.1-.05.11-4.51.06-5.1-.03-.4-.07-.51-.19-.7-.15-.33-.43-.6-.43-.6s-.17-.1-.15-.38c.04-.45.1-.42.25-.22.28.37.26.72.33 1.2 0 0 .13.18.32.5.11.2.07.54.08.83 0 0 .03 3.98.02 4.36.05-.14.17-.29.17-.29s.01-4.9-.12-5.94c-.04-.27-.16-.4-.2-.63-.09-.7-.11-.89-.3-1.15 0 0 .22.16.4.64.14.32.24.78.35 1.42.06.37.2.93.2.93.1-1.65-.21-2.34-.21-2.34-.1-.28-.28-.7-.45-.97-.19-.3-.37-.54-.42-.6-.7-1.14-.79-1.5-1.5-2.87-.7-1.36-.52-2.51-.52-2.51s.13.49.3.64c.07.04.22.37.15.8-.02.12.02.52.38 1.25.44.89.83 1.58 1.1 1.9.23.3.36.26.36.26-.13-1.05-1.03-4.43-1.03-4.43s.34.2.49.8c.05.2.15.87.32 1.57.25.97.96 3.52 1 3.6-.25-1.71-.17-1.71-.34-2.4-.1-.4-.06-1-.14-1.57-.12-.88-.16-1.17-.17-1.34-.1-1.7-.63-1.81-.63-1.81.24-.64-.07-.81-.07-.81-.14-.1-.44-.2-.55-.15-.22.15-.17-.18-.4-.07-.13.06-.48.18-.48.18.66-.5.38-.66.38-.66-.6.82-1.43.74-1.43.74-.25.02-.5.02-.64 0-.1 0-.16.08-.2.19l-.05-.06c.05-.07.1-.14-.04-.24a.4.4 0 0 1-.1-.11s-.12-.23-.02-.4c.08-.13.19-.23.19-.4-.19-.01-.45.06-.54.17-.1.1-.17.2-.3.32a.98.98 0 0 0-.25.47c-.05.21.21.32.21.32s-.53-.07-.21-.52c-.05.05-.26.13-.39.23s-.2.36-.28.5c-.08.14-.2.42-.29.5-.08.1-.32.58-.3.75.07-.12.33-.23.33-.23a.66.66 0 0 1 .34-.05c.13.02.13.05.35-.16.2-.2.27-.44.53-.61.17-.1.39-.2.54-.28.01.06.05.1.1.12.04.01.08 0 .11-.03a9.79 9.79 0 0 0-.04 1.25c.07.53.17.78.24 1.03 0 0-.34-.55-.38-.85 0 0-.02 1.85.16 2.23l-.27.22-.05.04-.22.16a6.9 6.9 0 0 1-.57.33c-.07.03-.16.02-.3.02-.12 0-.19.08-.27.16 0 0-.35.07-.44.01a8.58 8.58 0 0 1-.62-.44c.16-.05.3-.14.32-.26.01-.08-.02-.16-.07-.24l-.55-.3c.4-.05.49.04.67-.12.2-.18.5-.45.77-.66.26-.22.2-.62.25-.88.03-.97-.93-.46-.93-.46l-.08.24c-.02.05-.16.08-.2.06.7.46.31 1.02.31 1.02s.3-.55-.27-.72c-.71-.2-.88-.84-.97-.97-.22-.29-.41.06-.6.12-.12.04-.17.05-.46 0-.19-.03-.29-.18-.35-.28-.06-.1-.05-.28-.05-.28s-.2.2-.04.46c.17.28.3.74.35.9a4.25 4.25 0 0 0 1.06 1.65c-.1.05-.17.13-.2.22-.02.15.08.3.26.4l-.01.04-.4.2c-.15.1-.23.17-.25.26 0 .13.07.14.23.04l.43-.17c.08-.04.17 0 .17 0s-.64.27-.75.33c-.08.05-.2.13-.18.28.01.06.09.1.15.06l.5-.19c.15-.05.12-.02.18-.01 0 0-.7.3-.74.33-.06.03-.08.1-.08.17s.08.12.14.1l.46-.2c.09-.05.17 0 .17 0s-.6.27-.61.3c-.01 0-.03.03-.03.06l-1.04-.37-.19 1.04 1.45-.02-1.02 5.8c.15.67.2 1.31-.39 2.17zm4-3.54c-.12-.54-.75-1.72-.36-1.76.17-.01 1.12.83 1.56.83.44 0 .55-.2.64-.35.32-.59.5-.67.5-.67-.12.14-.23.31-.4.68-.16.3-.34.64-.52 1.02-.51 1.08-1.62 2.55-1.62 2.55.26-.54.29-1.97.2-2.3zm2.43-.71c0-.18-.02-.3-.08-.31-.03.01-.27.23-.42.67-.13.43-.27.76-.69 1.85-.7 1.82-1.22 2.12-1.22 2.12.1-.4-.17-.89-.17-.89.63-.67 2.52-4.15 2.8-4.48.29-.32.35-.2.35-.2-.32.26-.48.73-.57 1.24zm.47 4.5c.05-.21.06-2.73.06-2.73.08.94.4 3.13.4 3.13-.37-.04-.52-.2-.46-.4zm2.11-3.81c-.11-.8-.13-.98-.37-1.37 0 0 .55.53.59 1.53.04.99-.06 3.55-.13 4.24 0 0-.43.55-.73-.39 0 0 .3.19.41-.54.12-.74.35-2.68.23-3.47zm-3.59-10.8c.52.12.71.04.9 0-.05.2-.47.18-.47.18.09.05.24.22.32.35.17.28-.24.12-.24.12-.03-.38-.51-.66-.51-.66zm.14 2.4c.04.2.1.61.18.96-.04.06-.23.23-.4.37.39-.33.26-1.12.22-1.33zm-4.25 3.37c.08.03.24.03.28.01l.46-.15c.15-.05.14-.02.18-.13.04.24.19.35.43.39.29.04.45-.19.67-.18 0 0 .24.02.28.01l.05.15c.22.18.37-.07.28-.25 0 0 .13.14.33.15.26.02.83-.13 1.1-.23.3-.1.88-.32.96-.5.06-.15-.23-.66-.35-.97-.04-.13-.06-.14-.13-.32l.34.71.07.15a15.03 15.03 0 0 0 .68 1.12c.26.28.5.42.64.7-.24-.37-.5-1.58-.64-2.03-.14-.46-.6-1.3-.73-1.52a5.39 5.39 0 0 1-.34-1.17c-.04-.32 0-.7 0-.7s.51 1.5.56 1.72c.05.22.58 1.86.7 2.1.1.22.79 2.12.96 2.32a6.97 6.97 0 0 1 .95 1.2c-.2-.26-.47-.36-.47-.36-.21-.16-.2-.25-.22-.35-.04-.25-.26-.49-.26-.49-.1-.08-.19-.19-.27-.31l-.24-.42s-.48-.43-.79-.58c-.34-.17-.52-.26-.76-.16-.77.34-1.56.38-1.63.37-.69-.11-.26.21-.26.21.38.08.34.21 1.25.26.84.04.96.05 1.41.14.46.09.7.35.7.35a2.48 2.48 0 0 0-1.44-.1c-1 .17-1.92-.65-1.92-.65-.62-.28-.55.1-.46.2.13.14.24.2.24.2-.43-.14-.23.14-.23.14.29.15.48.32.48.32 1.18 1.08 2.01 1.26 2.52 1.17.07-.01.23-.07.3-.05-.2.07-.26.14-.32.2-.25.2-.85.3-1.32.37-.6.08-1.21-.06-1.4-.21-.14-.1-.18-.47.09-.55.35-.1.44-.23.46-.43 0-.15-.33-.5-.33-.5-.54-.3-.74-.1-.74-.1l.18-1.05H25.75c-.1.01-.2.02-.3 0h-.06l-.4-.01.03-.15-.15-.08s-.1 0-.2.03l-.3.1-.24-.09zm5.57 2s-.55.37-1.34-.09a8.86 8.86 0 0 1-1.15-.73s.79.37 1.3.26c.52-.1.73-.22 1.21-.21 0 0-.79.23-.74.66.02.16.35.2.72.12zM17.52 28.92l.02-.04-.02.04M15.74 25.5s.06.79.34.93c.32.16.52.54.95.33 0 0 1.59-1.49 1.6-2.12-.22-.13-.3-.35-.3-.39.12.28.39.43.56.28.39-.35.39-.41.39-.41.24.04.5-.24.5-.32a.26.26 0 0 0-.1-.19c.25.18.36-.18.36-.18.12-.07.15-.16.15-.16l-.04-.04c.4.04.74-.15.74-.15.04-.04.04-.07.03-.1-.03-.05-.14-.09-.14-.09s-.96.06-1.02.08c-.2.05-.1.24-.11.36-.01.16-.07.2-.07.2.06-.13.04-.18-.02-.3-.05-.13-.15-.08-.12-.16.04-.09.11-.18.33-.2.17-.03.38-.34.4-.57 0-.06-.03-.1-.06-.1-.1-.04-.32.08-.41.13-.07.05-.4.13-.4.13s.13-.03.27-.1c.14-.08.4-.24.48-.24.08 0 .37-.06.45-.06.48-.16.26-.36.15-.37-.05 0-.56.1-.63.1-.09 0-.94.4-1.04.45-.1.05-.38.68-.41.8l-.17.47c-.24-.06-.36.18-.46.3-.12.13-.58.73-.66.81-.08.1-.73.5-.73.5-.17.3-.05.52-.07.49 0 0-.15-.17-.1-.42 0 0 .06-.18.02-.3l-.13-.19c-.04-.05-.07-.1-.1-.12 0 0-.52-.33-.43.92" fill="#333"/>
    <path d="M18.8 28.27l.06.6c-.55.06-1.08.16-1.5.24-.22.2-.57.36-.93.5.03.14.08.25.14.24 0 0 1.15 0 2.36-.11l.18 1.88c.06.14.17 1.2.1 1.3h.01a6.36 6.36 0 0 0-3.62-2.42c-.26-.01-.42-.02-.46.4 0 0-.06.63-.03.97.02.26.15.72.32.78.17.05.38.01.38.01l-.3.18c-.1.07-.32.2-.4.35-.1.15.31.04.31.04.02.12.23.08.23.08s.02.3.68-.05c.38-.2.56-.38.85-.47-.1.03-.28.17-.4.27l-.58.5c-.2.15-.85.41-1.33.54.1.1.3.02.3.02-.01 1.18 1.78.2 1.78.2-1.44 1.17-2.02 0-2.37.48 1.67 1.14 3.49-.86 3.85-1.26.42-.44.96-.35.96-.35s0 .44-.06 1v-.02l.3 3.29c.06.55.06.75-.14.85-.27.14-.44.12-.72-.07a2.53 2.53 0 0 1-.45-.41 3.47 3.47 0 0 1-.41-.61c.23.15.42.16.54.13a8.9 8.9 0 0 1 .16-.06l.08-.06-.08-.05-.05-.03c-.83-.56-1-1.52-1.03-1.87.03.24.14.74.61 1 .81-1.02 1.1-1.75.68-2.24-.19-.22-.88.16-1.3.46-.32.22-.63.45-1.12.86-.44.36-1.36 1.27-1.36 1.27s1-1.32.47-1.25c-.34.16-.52.67-.8 1.18-.24.47-.23.57-.67.77-.02.94 1.76-.1 2.4-.75.38-.38.5-.52.6-.83l-.03.09c-.07.2-.11.4-.13.6-.24.21-.14.14-.35.29l-.08.06c-.3.22-1.36 1.03-2.28 1.42-.41.18.03.9.03.9-.08.47.6.95.6.95s.34.12.64-.08c.33.13.87-.09 1.37-.37.64-.37 1.22-.84 1.22-.84-.18-.19-.32-.23-.47-.3 0 0-.19-.06-.51 0-.33.07-.79.25-1.55.74 0 0 .72-.64 1.37-1.34.19-.2 0-.64 0-1.08.05.74.4 1.23.41 1.24l.16.22-.04-.27c-.03-.21 0-.48.02-.68.22.65.44 1.06.64 1.33.2.28.39.42.51.52.4.3.99.71 1.4.99l.46.3.05.03.04-.04c0-.01 1.01-1.05 1.52-1.67.2-.25.58-.71.7-2.06.08.18.16.43.18.65l.01.15v.05-.05l.01.12.1-.25c.01 0 .23-.54.13-1.24a2.59 2.59 0 0 0-.89-1.58l-.15-.13.04.2c0 .01.28 1.33-.6 2.22l-.08.07.1.04s.32.13.66-.23c-.08.3-.26.8-.6 1.2-.23.24-.4.3-.7.22-.2-.05-.25-.24-.32-.8l-1.07-7.67c1.23-.17 2.39-.43 2.39-.43.05-.01.08-.14.06-.29-.01-.15-.07-.27-.13-.27 0 0-1.2 0-2.44.12l-.08-.57h.12-.45c-.1 0-.16 0-.23.04M11.65 38.82c.1-.25.05-1.19.05-1.19 0 .15-.03.68-.39 1.25-.13.2-.27.99-.27.99s.09.2.42.12c-.03-.55.06-.78.2-1.17M16.97 27.55s-.73.3-.97.45c-.45.27-.6.75-.63.9-.04.3-.07.6.65.34 1.29-.45 1.27-.54 1.27-.54-.2-.14.03-1.1.03-1.1-.07-.08-.35-.05-.35-.05M26.38 7.51h3.36l-.75 3.26v.02-.02l2.08-2.61 2.1 2.62-.76-3.26h3.36l-3.03-1.45 2.1-2.63-3.02 1.47-.74-3.27-.74 3.27-3.01-1.47h-.01l2.1 2.62-3.04 1.45M29.78 51.78a12.98 12.98 0 0 1-7.95 2.65 13 13 0 0 1-7.94-2.65 12.98 12.98 0 0 1-8.6 2.63c.76.88 1.58 1.7 2.47 2.44 2.34-.3 4.4-1.2 6.13-2.53a13 13 0 0 0 7.94 2.65c3.04 0 5.81-1 7.95-2.65a12.62 12.62 0 0 0 6.13 2.53c.9-.74 1.71-1.56 2.47-2.44l-.64.02a13 13 0 0 1-7.96-2.65M38.38 54.41l.01-.01-.01.01M15.35 18.94s-.19.11-.31.1c0 0-.25.18-.32.4a.51.51 0 0 1-.14.23c-.07.07-.15.1-.15.1 0 .05 0 .1-.03.15-.05.1-.13.23-.2.3-.1.1-.1.22-.09.26.06.08 0 .11-.02.21-.02.08.03.26.02.33 0 .2-.04.24-.09.33-.05.1.03.2.03.2a.28.28 0 0 1-.12.06c.14.34.53.3.7.28.05 0 .23 0 .34.02.12.01.36.07.48.05.33-.06.22-.38.21-.48-.02-.1-.21-.25-.21-.25s.16.07.3.07l-.01-.08-.13-.03a2.4 2.4 0 0 0-.3-.03s.29-.06.49-.03l-.04-.26c.4 0 .33-.23.27-.36a2.6 2.6 0 0 1-.14-.4l-.06-.23c0-.01.04-.1.03-.17-.05-.26-.04-.7-.04-.7-.1 0-.21-.07-.21-.07s-.13.05-.26 0m.19 1.15c-.06.03-.1.05-.16.01-.09-.04 0-.13-.22-.16 0 0 .04-.04.14-.06a.4.4 0 0 1 .3.02s0 .16-.06.2m.08-.24c-.1-.02-.16-.08-.3-.05a.87.87 0 0 1-.39 0s.15-.03.24-.09c.09-.05.32-.14.64.03 0 0-.09.12-.19.1" fill="#333"/>
    <path d="M29.78 46.7a12.99 12.99 0 0 1-7.95 2.66 13 13 0 0 1-7.94-2.65 12.99 12.99 0 0 1-7.95 2.65c-1.5 0-2.9-.24-4.22-.68.44 1.02.95 2 1.52 2.94a12.98 12.98 0 0 0 10.64-2.37 13 13 0 0 0 7.95 2.65c3.04 0 5.81-1 7.95-2.66a13 13 0 0 0 10.65 2.38 21.6 21.6 0 0 0 1.52-2.94 13.3 13.3 0 0 1-12.17-1.97M12.79 21.16c0-.09.01-.11.03-.2.04-.2.14-.36.14-.36-.22.74.13 1 .07.96 0 0-.11-.29.07-.51 0 0-.05.23.01.3 0 0 .01-.22.14-.39.1-.14.14-.22.17-.36.04-.18.07-.26.11-.34 0 0-.04.1-.06.32 0 .12 0 .14-.04.24-.08.21-.22.61.1.83 0 0-.17-.34 0-.55 0 0-.04.33.15.4 0 0-.06-.25.03-.46.07-.14.07-.3.07-.37 0 0 .06.23 0 .38-.05.12-.03.3.06.38 0 0-.07-.1.05-.26.11-.15.18-.34.14-.5-.05-.21-.2-.31.06-.67 0 0-.04.26 0 .41a.4.4 0 0 1 0-.18c.06-.2.12-.15.06-.38-.04-.14.11-.28.11-.28l-.02.1c0 .04.03.1.05.13l.02.15c.04-.07.03-.25.02-.37 0-.15.07-.3.07-.3v.22c0 .1.03.2.03.28 0 0 .09-.02.1-.24 0-.18.07-.25.05-.4.1.13.04.4.04.4.15-.17.08-.26.06-.4-.03-.14.13-.23.13-.23-.07.06-.05.2.03.22.07 0 .2-.1.2-.1s.25-.05.25-.26c0 0 .1.24.26.04 0 0 0 .08.06.13.2.06.11-.3.11-.3s.05.03.1.09c.1.14.04-.12.04-.12-.14-.27-.71-.39-.98-.42-.27-.03-.58-.05-.89-.03-.42.02-.62.2-.82.37-.2.16-.37.5-.55 1.28-.18.78-.38 1.4-.38 1.5.02.52.5.23.55-.15M17.14 30.18a12.1 12.1 0 0 0-1.07-.45c-.88.22-.33.57-.2.63.4.16 1 .48 1.64.88.65.41 1.57 1.02 1.6.4-.33-.57-1.22-1.1-1.97-1.46M11.23 10.17c-.98 0-1.86-.38-2.53-.99a4.42 4.42 0 0 0 7.85-2.75 4.4 4.4 0 0 0-4.39-4.4c-1.38 0-2.65.65-3.46 1.65a3.72 3.72 0 0 1 6.27 2.75 3.74 3.74 0 0 1-3.74 3.74M12.45 22.62c-.03-.28.2-.35.32-.4 0 0-.17 0-.45.23a4.7 4.7 0 0 0-1.19 1.81 8.11 8.11 0 0 0-.39 2.27c-.02.42-.13 1.9-.16 2.85-.02.62-.06 1.02-.06 1.31l-.07 8.77.16-1.96.46-4.73s.22-1.8.27-2.94c.04-1.13.13-3.3.18-3.6.04-.32.22-1.13.38-1.32l-.22 7.04.08 2.09-.06 3.6.44 2.35c.14.07.35.09.6-.1l-.27-.72-.38-2.1s.11-.02.2-.11c.1-.09.15-.31.15-.31.03-.72.72-4.8.96-5.52.23-.72.33-2.57 2.11-3.67 0 0-.2-.2-.56-.27-.36-.06-.27-.1-.27-.1.14-.2-.24-.74-.24-.74-.43-.7-.67-.8-1.01-1.2-.45-.51-.03-.67-.03-.67.07.34.2.5.38.75s.66 1.12.66 1.12.18-1.26-.7-2.3a8.52 8.52 0 0 0-.6-.63l-.22-.2-.32-.32-.03-.08c.07.08.18.15.35.22.7.3 1.39.45 1.73.15.12-.08.13-.36.1-.44-.06-.13-.15-.18-.06-.45.03-.08.06-.19-.18-.2a.72.72 0 0 1-.53-.27l-.05-.22s-.1.02-.16 0c0 0-.1.14-.19.09 0 0-.19.12-.4.01l-.28.1c0 .19-.13.4-.13.4l-.32.4m1.19 4.04c.3.73.84.58.84.58-1.02.47-1.4 2.25-1.4 2.25.1-1.46.76-1.86.56-2.83m-.74-3.23l-.3-.13c-.16-.07-.36-.14-.49-.37-.06-.17.13-.4.22-.47 0 0-.29.32.57.97M21.84 59.5c-3.04 0-5.81-1-7.95-2.65-1.04.8-2.23 1.45-3.52 1.9.8.5 1.64.94 2.51 1.34.35-.22.69-.46 1-.7A13 13 0 0 0 21.85 62a13 13 0 0 0 7.95-2.61c.32.24.65.48 1 .7.87-.4 1.7-.84 2.51-1.34-1.3-.45-2.48-1.1-3.51-1.9a13 13 0 0 1-7.95 2.65" fill="#333"/>
    <g transform="translate(0 17.71)">
      <mask id="d" fill="#fff">
        <use xlink:href="#c"/>
      </mask>
      <path d="M29.12 3.55c-.06-.13-.07-.44-.12-.64-.03-.1-.14-.26-.25-.41 0 0 .11.14.32.27.2.11.35.36.36.47 0 0-.06-.1-.19-.08-.1.01-.15.21-.12.4.2.22.24-.1.24-.1s.09.08.04.2c0 0 .12.13.27-.04.1-.12.1-.54-.34-.85-.44-.33-.43-.57-.43-.57s.13.2.38.3c.25.1.37.22.44.39 0 0-.04-.1-.26-.13 0 0 .52.55.36.89 0 0 .22-.19.08-.5 0 0 .16.15.16.28 0 0 .18-.23-.2-.62-.2-.2-.17-.3-.21-.38-.04-.08-.1-.12-.22-.24-.13-.13-.13-.27-.2-.45 0 0 .04.12.18.2 0 0 .05-.36-.07-.5 0 0 .13.14.17.28.03.14.12.3.18.38.07.09.14.21.11.43-.03.23.17.3.22.34.05.05.3.24.26.53 0 0 .13-.2-.08-.54-.2-.35-.12-.44-.1-.47 0 0 .04.23.23.3 0 0 .05-.12-.26-.48-.3-.37-.51-.71-.5-1.14 0 0 .01.16.26.3 0 0-.09-.2-.12-.34-.04-.14-.1-.64-.89-.78a4.06 4.06 0 0 0-1.44.3c-.22.16-.48.47-.45.81 0 .07.17.42.22.45v.24c0 .04-.06.16 0 .2.02.02.03.06.03.11 0 .13-.14.63-.14.73 0 .1.02.21.19.19a.56.56 0 0 0 .14-.04v.22c.06-.06.13-.05.2-.05l.3.02-.27.06c-.11.02-.16 0-.16 0l-.02.12s.24-.02.35-.1c0 0-.06.11-.15.15-.1.04-.16-.04-.2-.05 0 0 .1.03.11.16.02.14-.06.34.16.36a3.5 3.5 0 0 0 .64 0c.11-.04.7-.29.79-.58M27.86 2.3c-.07.07-.02.19-.18.2-.15 0-.2-.22-.2-.22s.18-.08.33-.07c.14 0 .18.05.18.05s-.07-.01-.13.04m-.48-.05c-.09 0-.15-.04-.15-.04.15-.12.41-.2.55-.2.27.01.38.2.38.2-.45-.17-.69.04-.78.04m.85-.56c-.07-.02-.34.09-.59 0-.24 0-.51-.29-.51-.29-.02-.08 0-.1.04-.09.06.02.09.1.13.16.04.06.15.15.34.21 0-.13-.08-.2-.08-.2s.1.1.21.13c.65.14.3-.15.3-.15.48.2.34.46.46.73-.06-.09-.07-.2-.12-.3-.09-.18-.18-.2-.18-.2M39.73 25.68h-3.98v-2.43h-3.97v2.43H27.8v-2.43h-3.98v2.43h-3.97v-2.43h-3.98v2.43H11.9v-2.43H7.92v2.43H3.94v-2.43H.02c.05 1.66.3 3.27.7 4.8a13.2 13.2 0 0 0 5.21 1.06 13 13 0 0 0 7.95-2.65 13 13 0 0 0 7.95 2.65h.01a13 13 0 0 0 7.95-2.65 13 13 0 0 0 7.95 2.65c1.86 0 3.62-.38 5.2-1.05.41-1.54.66-3.15.72-4.81h-3.93v2.43" fill="#333" mask="url(#d)"/>
    </g>
    <path d="M13.5 23.39c-.23-.05-.16.11-.08.19.47.48 1.2 1.44 1.24 2.28 0 0 .55.21.65-.6.06-.48-.1-1.29-.2-1.51l.24.57c.24.64.15.87.26 1.45.04-.12.06-.27.08-.42l.02-.44c.02-.43 0-.81-.07-.97-.09-.21-.14-.31-.18-.36l-.6-.78c-.04.17-.11.3-.2.39-.22.26-.69.29-1.15.2M28.36 23.2c.2.06.48.12.72.13.26-.03.53-.08.68-.19a1.76 1.76 0 0 0 .53-.6c.02-.02.02-.04.03-.07.03-.1.04-.3-.25-.52-.12-.09-.25-.38-.26-.4-.12.04-.23-.05-.23-.05-.15.04-.23-.05-.23-.05-.06.01-.18-.02-.23-.18.06.24-.43.48-.61.7-.16.2-.26-.05-.35.06 0 .15.06.2.06.28 0 0-.01.25-.03.33-.03.16-.08.5.17.56M31.8 39.74c-.04-.18-.1-.15-.28-.08-.13.05-.37-.06-.52-.1-.14-.03-.16.02-.29.04a.78.78 0 0 1-.3-.01c-.36-.05-.33.35-.33.35l.06.12c.09.07.17.08.22.11.05.03.05.06.07.1 0 0 .46.34.72.05.06-.13-.28-.35-.24-.33 0 0 .17.08.28.2.1.13.27.22.38.1.1-.14-.26-.39-.26-.39s.17.09.27.22c.11.13.2.18.25 0-.07-.16-.24-.28-.24-.28s.08.04.17.12c.1.1.19.07.16-.1a.56.56 0 0 0-.12-.12M55.89 19.66l-1.08 3.39h2.17l-1.09-3.4zm2.31 7.22l-.74-2.31h-3.13l-.76 2.3h-1.88l3.4-9.35h1.6l3.38 9.36H58.2zM64.71 19.66l-1.07 3.39h2.17l-1.1-3.4zm2.32 7.22l-.74-2.31h-3.14l-.76 2.3h-1.87l3.39-9.35h1.6l3.39 9.36h-1.87zM72.91 19.04h-1.16v2.58h1.16c1.14 0 1.63-.4 1.63-1.34 0-.89-.47-1.24-1.63-1.24zm1.87 7.84l-2.14-3.75h-.9v3.75h-1.78v-9.36h3.12c1.36 0 1.99.17 2.54.7.5.46.76 1.14.76 2.02 0 .72-.17 1.3-.5 1.76-.36.45-.69.65-1.47.86l2.33 4.02h-1.96zM84.68 26.88v-4.02h-4.81v4.02h-1.79v-9.36h1.79v3.74h4.8v-3.74h1.8v9.36h-1.8M95.13 26.38c-.68.47-1.47.68-2.63.68-1.18 0-1.95-.2-2.66-.68-.96-.67-1.27-1.45-1.27-3.16v-5.7h1.77v5.8c0 1.39.72 2.08 2.21 2.08 1.36 0 2.09-.74 2.09-2.08v-5.8h1.78v5.7c0 1.71-.31 2.48-1.29 3.16M103.77 19.75c-1-.44-1.8-.67-2.43-.67-.83 0-1.37.34-1.37.86 0 .4.22.64.9 1 1.42.76 2.36 1.36 2.8 1.8.4.4.64 1.02.64 1.67 0 1.67-1.22 2.65-3.3 2.65a5.58 5.58 0 0 1-2.8-.7l-.6-.3.76-1.64c.68.37.96.51 1.33.66.47.17.98.26 1.35.26.82 0 1.36-.36 1.36-.93 0-.4-.22-.67-.83-1l-1.44-.83c-1.66-.95-2.17-1.57-2.17-2.6 0-.46.14-.94.37-1.3.15-.24.4-.48.7-.7.67-.46 1.25-.62 2.35-.62.62 0 1.17.07 1.75.24.46.15.71.25 1.34.54l-.71 1.6M56.6 40.16l-3.12-4.45v4.45h-1.79V30.8h1.79v4.37l2.93-4.37h2.06l-3.22 4.56 3.39 4.8H56.6M63.6 32.18c-1.78 0-3.09 1.42-3.09 3.3 0 1.9 1.3 3.3 3.08 3.3 1.76 0 3.06-1.4 3.06-3.3 0-1.88-1.3-3.3-3.06-3.3zm0 8.17c-2.93 0-4.99-2.02-4.99-4.87 0-2.89 2.02-4.84 4.98-4.84 2.95 0 4.96 1.95 4.96 4.84 0 2.85-2.05 4.87-4.96 4.87zM78.17 40.16V33.3c-.07.48-.06.55-.36 1.33l-2.14 5.53h-1.6l-1.95-5.43c-.2-.54-.22-.7-.36-1.49v6.92h-1.62V30.8h2.14l2.5 6.68c.1.27.14.37.19.73.05-.44.08-.5.17-.73l2.59-6.68h2.14v9.36h-1.7M90.23 40.16V33.3c-.07.48-.06.55-.35 1.33l-2.15 5.53h-1.6l-1.95-5.43c-.2-.54-.22-.7-.36-1.49v6.92H82.2V30.8h2.15l2.5 6.68c.09.27.13.37.17.73.06-.44.1-.5.18-.73l2.59-6.68h2.14v9.36h-1.7M100.65 39.66c-.68.47-1.48.69-2.64.69-1.18 0-1.94-.2-2.65-.69-.96-.66-1.28-1.44-1.28-3.16v-5.7h1.78v5.8c0 1.4.72 2.09 2.2 2.09 1.37 0 2.1-.74 2.1-2.09v-5.8h1.78v5.7c0 1.72-.31 2.49-1.3 3.16M110.24 40.25l-4.01-6.06-.2-.36-.11-.2c-.06-.12-.09-.17-.13-.33v6.86h-1.7V30.8h2.05l3.93 6.16.1.2.08.18.09.24.08.17V30.8h1.7v9.45h-1.88M114.4 40.16V30.8h5.7v1.52h-3.91v2.31h3.2v1.52h-3.2v2.5h4.1v1.51h-5.89" fill="#333"/>
  </g>
</svg>
