<svg xmlns="http://www.w3.org/2000/svg" fill="none" viewBox="0 0 99 50">
  <path fill="#333" fill-rule="evenodd" d="M74.3763 31.3961c-.013-.0296-.0303-.0556-.0448-.0779-.018-.0239-.0382-.0462-.0635-.0693 0 0-.1791.0794-.2534.1862-.1458.2058.1451.6642.1451.6642-.2433-.0801-.3942-.2844-.4007-.4245-.0058-.187.1704-.6079.1704-.6079.0549-.1675.1126-.4072.1704-.6555.0577-.2426.1119-.4916.1935-.784.1653-.5725.4064-1.218.5429-1.7948.1032-.4245.1805-.7978.2057-1.0504.0621-.6187.1372-1.7825.1791-2.5463.0238-.4094.0166-.3062.0166-.3401 0-.0989.057-1.1334.5494-1.5652.3256-.2823.6317-.2339 1.0049-.4122 0 0-.5342-.2188-1.1919-.0729 0 0-1.1364.893-1.6764 4.8746 0 0-.6627 3.7057-.6851 4.0833-.0094.1964.1747 1.1342.1747 1.1342s.5768.2491.6981.2252c.0751-.0267.1762-.0324.3473-.0786.1689-.0499.2743-.0607.5653.0353-.6924-.3104-.5545-.5501-.6476-.7234M79.2073 18.0985l.6837.0253c.2036.0072.3271-.0534.3155-.1877-.0101-.1083-.2989-.1653-.2989-.1653l-.4967.0772s-.0585.2108-.2036.2505M85.6709 21.7105c0-.0563-.1011-.8981-.1011-1.5399-.0029-.3293-.0072-.6043-.0101-.696-.0094-.1949-.2028-.1054-.2404-.0303-.0953.1747-.1372.1371-.1372.1371s-.0592-.0101-.0707.1596c-.0253-.1242-.039-.1134-.0758-.1502-.1401-.1343-.2173.3336-.2173.3336s-.0123.096-.0195.3285c-.0015.0483-.0043.1082-.0043.1696 0 .2383.0209.6794.1667 1.0035.0282.0534.0607.0729.104.0765 0 0-.0462.3293.0577.4895.1942.3011.2989.2318.2989.2318.3473-.2866.2513-.3935.2491-.5133M77.5494 20.9228c0 .1747.0635.3364.166.4722-.1747.1624-.3761.3811-.4144.4317-.075.0974-.2295.1415-.2295.1415s-.1654.9999.2086.8656c0 0 .0592-.239.2606-.1956.3372.0736.4274-.0549.5639-.1596.0909-.0686.3631-.0123.3631-.0123.2123-.0469.4635.0578.5068-.1357-.0014-.0267-.0079-.0476-.0079-.0476-.1697-.1408-.6512-.0737-.6512-.0737s.0743-.0296.1776-.0433c.0339-.0072.1011.0014.1068-.0549 0 0 .0419.0015.2621.0672.1776.057.1891-.0318.2007-.0672-.0043-.0678-.0549-.114-.0549-.114s-.2332-.0968-.3443-.1163c-.1098-.0173-.4144.0239-.4144.0239s.0108-.013.1877-.0499c.0642-.0144.1278-.0144.122-.0693 0 0 .127.0123.2974.0953.1177.0578.1755.0556.2079.0376.0109-.0195.039-.0433.0434-.0607v-.0397c-.0138-.0989-.1054-.1371-.1054-.1371s-.3632-.1293-.4614-.1394c-.0974-.013-.4144.0672-.4144.0672.0802-.0571.169-.0643.2715-.0823.1429-.0275.1249-.1054.1249-.1054s.0303.0454.3169.1299c.0787.0245.2845.13.2245-.0578-.0158-.0245-.0527-.0671-.0902-.0996.091-.1285.1487-.2837.1523-.4548.008-.4418-.3415-.8093-.7775-.8194-.0534 0-.104.0202-.1574.0296 0 0 .0014 0 .0014-.0015-.2064.291-.4598.5632-.6432.7754m.5078-.2945c.0773-.0736.1776-.1155.2859-.1141.2216.0051.3978.1921.3942.4159-.0022.1321-.0679.2411-.1639.314-.0397-.013-.0722-.0187-.0801-.0252-.0361-.021-.2404-.008-.4318-.0022-.0043-.0051-.0101-.0079-.0151-.0123-.0737-.0779-.1134-.1819-.1119-.2888.0043-.109.0447-.2122.1227-.2873M78.0904 31.5455c-.3928-.2866-1.4338.2029-1.4338.2029s-.1892.4382.1949.431c.2086-.0036.5667.0188.8504-.0433.2267-.047.5762.0426.8765.0462.4512-.1235-.488-.6368-.488-.6368M71.9789 29.262c-.0837.4981-.2729 1.3652-.3025 1.6785-.0267.3126-.0382.8685-.0382.8685.1177.0701.2657.1242.3191.1524l.5812-4.7533s-.4736 1.5579-.5596 2.0539" clip-rule="evenodd"/>
  <mask id="a" width="36" height="33" x="63" y="0" maskUnits="userSpaceOnUse" style="mask-type:alpha">
    <path fill="#fff" fill-rule="evenodd" d="M63 0h35.5524v32.2011H63V0Z" clip-rule="evenodd"/>
  </mask>
  <g fill="#333" fill-rule="evenodd" clip-rule="evenodd" mask="url(#a)">
    <path d="m79.4284 17.7787.4786-.0079c.3408.0245.444-.1206.3155-.2599-.0671-.0736-.553-.0686-.553-.0686l-.3213.1126s.1625.0347.0802.2238"/>
    <path d="m97.4387 22.1941-.1725-10.0047h.7039l-3.0387-6.02324c.3032-.15233.5133-.4671.5133-.83024 0-.51186-.4187-.93059-.932-.93059-.5133 0-.9306.41873-.9306.93059 0 .36314.2086.67791.5104.83024l-3.0372 6.02324h.7039l-.0513 2.9289-.1841-.7053c-.6072-2.3601-2.7485-4.1021-5.2948-4.1021-.0455 0-.0924.0014-.1343.0036-.4216-1.99188-1.929-3.58522-3.8696-4.13029V4.21835h.2924l-1.4367-2.84304c.239-.12129.4014-.3653.4014-.647586C81.4822.325599 81.1566 0 80.7552 0c-.4007 0-.727.325599-.727.727724 0 .282286.161.526296.3992.647586l-1.4352 2.84304h.2931v1.96586c-1.9399.54507-3.4458 2.13841-3.8689 4.13029-.0448-.0022-.0902-.0036-.1357-.0036-2.5463 0-4.684 1.742-5.2948 4.1021l-.1848.7053-.0505-2.9289h.7024l-3.0351-6.02324c.3025-.15233.5097-.4671.5097-.83024 0-.51186-.4144-.93059-.9306-.93059-.5133 0-.9284.41873-.9284.93059 0 .36314.2072.67791.5104.83024l-3.0386 6.02324h.7039l-.1719 10.0047h-.9291l-.1863 10.007h8.0743l-.1733-10.007v-4.5555c0-.7233.1884-1.8128.3913-2.5318.0693-.2397.143-.4715.2202-.6938.5624-1.5645 2.0576-2.6821 3.8112-2.6821.5205 0 1.0179.1004 1.4728.2751-.0231-.1812-.0383-.3653-.0383-.5545 0-2.23655 1.8005-4.05369 4.04-4.05369 2.2373 0 4.0393 1.81714 4.0393 4.05369 0 .1892-.0123.3733-.0382.5545.4555-.1747.9522-.2751 1.4727-.2751 1.7551 0 3.2495 1.1176 3.8112 2.6821.0801.2223.1516.4541.2195.6938.2057.719.392 1.8085.392 2.5318v4.5555l-.1718 10.007h8.0728l-.1848-10.007h-.9292Zm-31.1401-7.7472H66.3v-.109c.0268-.3646.3285-.6519.6967-.6519.1942 0 .3668.0787.4938.2058.1156.1176.1914.27.2036.4461h.0029v3.9484h-1.3984v-3.8394Zm-.3249 15.8309h-1.3984v-3.6581c0-.018 0-.0361.0029-.052.0267-.3624.3284-.6483.6966-.6483.3668 0 .6671.2859.6953.6483 0 .0159.0036.034.0036.052v3.6581Zm1.0231-4.8299c-.5812 0-1.0548-.4707-1.0548-1.0533 0-.5804.4736-1.0533 1.0548-1.0533.5826 0 1.0533.4729 1.0533 1.0533 0 .5826-.4707 1.0533-1.0533 1.0533Zm2.427 4.8299h-1.3955v-3.6581c0-.018 0-.0361.0015-.052.0274-.3624.3299-.6483.6974-.6483.3682 0 .6685.2859.6952.6483.0014.0159.0014.034.0014.052v3.6581Zm24.3909-15.9399h.0015c.0129-.1761.0888-.3285.2021-.4461.1263-.1271.3018-.2058.4945-.2058.3704 0 .6729.2873.6982.6519v.109h.0014v3.8394h-1.3977v-3.9484Zm-.3313 15.9399H92.085v-3.6581c0-.018.0022-.0361.0036-.052.0282-.3624.3271-.6483.6938-.6483.3696 0 .67.2859.6996.6483 0 .0159.0014.034.0014.052v3.6581Zm1.0295-4.8299c-.5812 0-1.0548-.4707-1.0548-1.0533 0-.5804.4736-1.0533 1.0548-1.0533.5826 0 1.0547.4729 1.0547 1.0533 0 .5826-.4721 1.0533-1.0547 1.0533Zm2.4225 4.8299h-1.4005v-3.6581c0-.018.0028-.0361.0028-.052.0296-.3624.33-.6483.6989-.6483.3667 0 .6671.2859.6967.6483 0 .0159.0021.034.0021.052v3.6581Z"/>
  </g>
  <path fill="#333" fill-rule="evenodd" d="M82.1935 19.6716c.0636.0044.1567-.0057.2426-.0404.1444-.0635.3501-.2469.4375-.4368.0339-.2007-.1047-.3523-.1964-.3941-.0729-.0325-.1191-.0282-.1956-.0029-.0744.0245-.2383.1104-.2383.1104.0527-.0527.0282-.1588.0282-.1588.1227.0837.6346-.1415.5342-.7328-.0195-.1227-.0382-.1545-.0368-.2187.0029-.0997.0159-.1791 0-.2542-.0187-.1061.039-.3025.0267-.3985-.0094-.0967-.1574-.0729-.2166-.0476-.2057.0924-.2129.4252-.2353.5292 0 0-.0303-.0065-.065-.0253-.0469-.0173-.0527-.0527-.1047-.1025-.026-.0238-.1241-.1422-.1646-.1993-.0426-.0556-.3357-.3768-.4663-.4974-.1264-.1141-.2116-.0079-.2181.0736-.0094.0932.2412.4448.2412.4448.205.275.2627.2996.2627.2996l-.0548.0418s.0238-.0324-.2621-.3414c-.0346-.0347-.2967-.4036-.4-.509-.1068-.1112-.2194.0014-.2389.0411-.065.1394.361.6483.361.6483.1826.2636.3357.361.3357.361l-.0621.0549c.0368-.0318-.3292-.4159-.3292-.4159-.1495-.1537-.2679-.3494-.3805-.4353-.148-.1068-.1971.1372-.1213.2455.0282.0375.0809.14.1848.2837.0982.1307.4455.4613.4455.4613l-.034.026c-.0873-.1104-.3588-.3833-.5479-.5147-.1877-.1307-.2411.0382-.1935.1306.0426.0867.2462.3329.2938.3877.0499.0556.4188.3227.444.3617.0434.0679.1444.2087.1675.2375.0441.06.1762.2491.2563.3134 0 0 .1596.1046.2585.0577-.091.2534-.0044.5415.2418.6158" clip-rule="evenodd"/>
  <path fill="#333" fill-rule="evenodd" d="M81.5617 30.5146c-.0405.2209-.0838.4736-.1047.5848-.1798 1.0042.0397 1.3666.0397 1.3666s.3328-.2649.5039-1.2706c.0903-.5162.4151-2.3615.7126-4.0393-.0874-.7999-.135-1.5558.0621-1.7363.1198-.1097.3516-.2946.2873-.2426.1134-.6375.1863-1.0612.1863-1.0612l.9277.3479c-.3805.1495-.6274.3509-.9097.5545-.5494.8526-.3285 1.9767-.2678 2.3528.0693.4433-.1379 1.1032-.1379 1.1032.096 1.0612.2722 1.6835.2722 1.6835s.2209.5538.6223.691c0 0-.4274-.0665-.4967-.2044 0 0-.1083.1069-.1509.2152 0 0-.4029.2736-.2592.5263-.1437.1436-.1516.1689-.3321.283-.1776.1148-.2093.14-.5147.2642-.1011.0419-.2361.1256-.2773.1971-.0137.0549.0282.065.0412.0455.0585-.0751.1502-.1148.1502-.1148-.1286.0693-.1235.1458-.0831.1783l.0202.0065c.026.0072.073 0 .1249-.0967.0224-.0469.0708-.0881.1798-.1242-.0281.0181-.2317.1011-.1444.231.1285.0563.1949-.1126.2217-.1408.0902-.0902.1689-.0916.3032-.1256-.2888.0831-.3177.1336-.2383.2679.065.0693.2426.0787.4.0166.2621-.0029.6447-.2101.8844-.2209.0946-.0087.0946.0014.2454.0491.0874.0281.3422.0281.3877-.0578.161-.3061-.3739-.6469-.4692-.6938-.0939-.0462-.3235-.2101-.3235-.2101s.3076.1733.566.2592c.1899.0751.3141.0975.3545.1018.3603.0462.5379-.1314.8786-.1581.8115-.7357.966-1.114 1.2201-2.2388.1054-.4483.2859-1.1363.3314-1.6698-.0311.7053-.0282.9024-.0137 1.1609.0224.4281.0657 1.8438.0339 2.0756-.0339.231-.1559.2858-.1559.2858s.2057.5328.6699.5935c.1098.0115.2361 0 .3754-.0534 0 0 .4621.3487 1.1364.1241.1068-.0368.2195-.0888.3415-.1595.0787-.0462.0895-3.6812.0491-4.1635-.0267-.327-.0578-.4173-.1553-.5725-.1227-.2635-.3523-.4808-.3523-.4808s-.1364-.083-.1176-.3177c.0303-.3674.0794-.3357.2021-.1776.2245.3047.213.5913.2678.9761 0 0 .1098.148.2643.4173.0873.1552.0498.4368.0642.6714 0 0 .0231 3.2387.0101 3.5556.0426-.117.1423-.2382.1423-.2382s.0108-3.9975-.0989-4.8465c-.0289-.218-.1322-.3198-.1574-.5075-.0766-.5725-.096-.7249-.2426-.9429 0 0 .1689.1365.3256.5213.1061.2628.1906.636.2779 1.1623.0535.296.1632.7595.1632.7595.0895-1.345-.1733-1.9074-.1733-1.9074-.0837-.231-.2238-.5682-.3667-.7956-.148-.2469-.2989-.4353-.3364-.4931-.5689-.927-.6447-1.2157-1.2201-2.3297-.5754-1.1147-.4325-2.0518-.4325-2.0518s.1083.4007.252.5205c.0498.039.1747.3025.1213.6484-.0181.1018.0144.4317.309 1.0266.3595.7241.675 1.285.8865 1.5471.1957.2426.3003.2115.3003.2115-.1046-.8562-.8403-3.6083-.8403-3.6083s.278.1668.3992.6556c.0419.1631.1199.701.2664 1.2749.1979.787.7812 2.8691.818 2.9268-.2115-1.3883-.1487-1.3883-.2837-1.9442-.0816-.3379-.0469-.8144-.1126-1.2807-.0997-.7227-.1286-.961-.1379-1.0996-.0823-1.3832-.5162-1.4727-.5162-1.4727.1956-.5242-.0556-.6606-.0556-.6606-.1141-.0766-.3617-.161-.4505-.1206-.1819.1184-.1372-.1487-.3177-.0606-.1126.0548-.3963.1487-.3963.1487.5342-.4108.3104-.5357.3104-.5357-.488.67-1.1667.6028-1.1667.6028-.2043.0195-.4042.0166-.5212.0036-.083-.0101-.1314.0628-.1661.1488-.0115-.0152-.0238-.0347-.0411-.0441.0419-.0599.0758-.1184-.0339-.1978-.0397-.0281-.0657-.0599-.0859-.091 0 0-.0888-.1891-.0102-.3284.0621-.1047.1517-.1805.1517-.3228-.1473-.0093-.3603.0455-.4404.135-.0823.0881-.1372.1625-.2455.2614-.0902.091-.1465.2043-.1949.3891-.0419.1711.1711.2614.1711.2614s-.4368-.0578-.1769-.4245c-.0419.0411-.2115.1054-.3155.1841-.1039.0808-.1631.2938-.2267.4057-.065.1141-.1718.3429-.2361.4166-.0635.0736-.2635.4685-.2476.6006.0592-.0917.2729-.1862.2729-.1862.1025-.0361.1754-.0499.2758-.0361.1025.0115.1025.0361.2801-.1285.1733-.1625.2253-.3639.4382-.5025.1343-.0867.3148-.1596.4375-.2267.0087.0484.0369.0852.0773.0975.0346.0101.0686-.0015.0974-.0246-.0166.1531-.0411.413-.0462.6613-.0014.13 0 .2541.0138.3617.0498.4303.1371.6303.1891.8324 0 0-.2751-.4483-.3068-.6866 0 0-.0202 1.5039.1335 1.8179-.1003.0823-.1913.1574-.2202.1762l-.0469.0346c-.0534.0412-.174.1285-.174.1285-.0115.0058-.0267.0137-.0426.0267-.1184.0722-.3682.2202-.4216.2397-.0606.0296-.1343.0152-.2411.0152-.1076 0-.161.0678-.2281.1343 0 0-.2867.0534-.3589.0086-.049-.0281-.2238-.1509-.3573-.2483-.0643-.0462-.117-.0859-.1444-.1098.1314-.0397.2382-.1119.2584-.2173.0094-.0642-.0173-.1278-.057-.1884.0043 0 .0029 0 .0065-.0007l-.4534-.2513c.3307-.0368.3964.039.5437-.0909.1711-.1531.4165-.3689.6302-.5436.2137-.1776.1574-.504.1993-.7184.026-.7898-.7552-.3747-.7552-.3747l-.0664.1993c-.0123.0382-.1271.0678-.1552.0491.5667.3783.2483.8295.2483.8295s.2462-.4462-.2231-.5826c-.5811-.1704-.7132-.6837-.7905-.7891-.1805-.2383-.335.0476-.483.0917-.1054.0317-.1458.0418-.379-.0044-.153-.0158-.2368-.1364-.283-.218-.0505-.0888-.0411-.2346-.0411-.2346s-.1654.1581-.0311.3812c.1343.2223.2455.6028.2808.7335.0369.1314.1495.5061.7862 1.2692 0 0 .0311.0281.0751.07-.0794.0455-.1393.1047-.1537.1819-.0195.1206.0606.244.2035.3292-.0014.0101-.0057.0217-.0065.0296-.1422.0621-.2887.1372-.3292.1639-.1184.0787-.1848.1408-.2028.213 0 .1025.0628.1083.1913.031.0339-.0202.3075-.1213.3472-.1386.0672-.0296.1379-.0079.1379-.0079s-.5176.2281-.6078.2801c-.0665.0368-.1603.1054-.1495.2209.0108.0556.0729.078.1256.0556.0535-.026.3386-.13.4014-.1552.1264-.047.0989-.0224.1502-.013 0 0-.5631.2454-.6057.2707-.0419.0253-.0643.0859-.0643.1357.0065.0636.0643.1026.1199.0802.0418-.0145.2989-.1329.3725-.1646.0729-.0325.1364.0094.1364.0094s-.4865.2144-.4974.2339c-.0072.0057-.0252.0339-.0187.0541l-.8519-.3018-.1517.8512 1.1783-.0137s-.4657 2.6604-.8317 4.7295c.1263.54.1711 1.0627-.3126 1.7666Zm3.2608-2.8849c-.1025-.4375-.6195-1.4006-.296-1.4273.1379-.0123.9089.6728 1.2684.6728.3588 0 .4527-.1668.5198-.2837.2657-.4823.4058-.5487.4058-.5487-.096.1148-.1798.257-.3285.5516-.1242.2512-.2736.5277-.4173.8331-.4151.883-1.3176 2.0799-1.3176 2.0799.208-.4411.2311-1.6056.1654-1.8777Zm1.9801-.5783c.0029-.1466-.0223-.2411-.0656-.2527-.0246.0144-.2195.1877-.343.5472-.1119.3552-.2202.6245-.5638 1.5133-.5696 1.4792-.9977 1.7247-.9977 1.7247.0909-.3191-.1365-.7249-.1365-.7249.5162-.5501 2.0554-3.3844 2.2857-3.6508.231-.2607.2852-.1582.2852-.1582-.2614.2087-.3964.5913-.4643 1.0014Zm.3762 3.6661c.0433-.1661.0549-2.2207.0549-2.2207.0649.771.3299 2.5492.3299 2.5492-.309-.0325-.4289-.1646-.3848-.3285Zm1.7241-3.1022c-.0931-.644-.1047-.7963-.3046-1.114 0 0 .4461.4346.4815 1.2454.0332.8064-.0484 2.8935-.1061 3.4588 0 0-.3516.4455-.5978-.3176 0 0 .2462.1523.34-.444.0939-.6007.2816-2.1825.187-2.8286Zm-2.9269-8.8056c.4209.101.5797.0368.727 0-.0368.1617-.3769.1552-.3769.1552.0708.0346.1964.174.2606.2801.1423.2289-.1963.0996-.1963.0996-.0217-.309-.4144-.5349-.4144-.5349Zm.1133 1.9629c.0368.1646.0859.4974.1509.7819-.0383.0462-.1949.1841-.3343.3025.3191-.2693.2173-.9133.1834-1.0844Zm-3.4621 2.7463c.0606.0245.1899.0231.2281.0087 0 0 .3235-.1083.3726-.1228.1198-.0389.1184-.0209.1494-.1097.031.2014.1509.2902.3458.3169.2361.0325.3704-.1509.5458-.1465 0 0 .1957.0173.2296.013.0195.0686.0397.1198.0397.1198.1841.148.3068-.0534.2339-.1992 0 0 .1054.1119.2686.1212.2115.0102.6699-.1126.8945-.1869.2447-.0852.719-.2672.7811-.4188.0477-.1133-.1906-.5328-.2808-.784-.039-.1018-.052-.1148-.1054-.2585.0418.1098.148.3336.275.5812.0181.0397.0397.078.0578.1199.0924.1725.1891.3523.2816.506.1046.1849.2035.3372.2678.405.2151.2282.4021.3408.5277.5668-.2007-.2939-.4144-1.2808-.5277-1.654-.1155-.3754-.4917-1.0555-.5891-1.2324-.0975-.179-.2577-.7631-.2809-.9587-.0317-.2563.0058-.574.0058-.574s.4137 1.2331.4541 1.41c.0405.1783.4715 1.5161.5595 1.7038.0888.1855.6476 1.7334.7942 1.8987.0447.0325.1747.1776.2938.3213.1545.1834.3112.3906.4779.6562-.1588-.2144-.384-.2923-.384-.2923-.1747-.1293-.1646-.2072-.1805-.2917-.0354-.2-.2072-.3935-.2072-.3935-.083-.065-.1552-.1552-.2231-.2563-.0664-.1047-.1292-.2231-.1928-.3371 0 0-.3978-.3581-.6468-.4794-.2787-.1357-.4216-.213-.6223-.1271-.6224.278-1.2692.3076-1.3255.2989-.5624-.0902-.2137.1747-.2137.1747.3082.0621.2786.1733 1.0194.2087.6887.0339.7811.0455 1.1529.1155.3704.0707.5696.2823.5696.2823-.3768-.1228-.644-.1805-1.1731-.0816-.8151.1451-1.5688-.5249-1.5688-.5249-.5083-.2324-.4448.0802-.374.1567.1068.1184.1971.1747.1971.1747-.3502-.1227-.1906.109-.1906.109.2361.1206.3949.2578.3949.2578.9559.88 1.6359 1.0266 2.0518.9573.0592-.0116.1833-.0592.2382-.0448-.1545.0628-.2043.117-.2563.1603-.205.1696-.6938.2556-1.0706.3075-.4859.0665-.9905-.0491-1.1501-.1732-.1076-.0874-.14-.3834.0758-.4484.2917-.0873.3624-.1833.3761-.353.0087-.117-.2649-.4057-.2649-.4057-.4411-.2484-.6064-.0845-.6064-.0845l.1508-.8519h-.0389l-.3047-.0029c-.1133 0-.0888-.0043-.2173.0058-.0773.0058-.1603.0166-.2447.0029-.0159-.0029-.0311-.0087-.0455-.013l-.3256-.0015c.0079-.0447.0137-.0801.0209-.1227-.0679-.0347-.1198-.0657-.1198-.0657s-.0831.0014-.1567.0282c-.0874.031-.2455.0772-.2455.0772l-.1985-.0693Zm4.5348 1.6345s-.444.2945-1.088-.0773c-.6505-.3711-.8829-.5515-.9378-.597 0 0 .6411.3032 1.0641.2101.4231-.0874.5906-.1762.9826-.1719 0 0-.644.1935-.605.5386.0145.1314.2881.1668.5841.0975ZM77.2364 23.0352c.0065-.0094.0138-.0253.0188-.0332-.005.0079-.0123.0238-.0188.0332M75.7883 20.2449s.0505.6454.2786.7602c.257.1292.4217.4396.774.2685 0 0 1.293-1.2107 1.2937-1.7218-.174-.1098-.2318-.2917-.2433-.3184.1076.2231.3234.3429.4613.2216.3191-.2808.3162-.3342.3162-.3342.1971.0368.413-.1957.4043-.2549-.0065-.0657-.0382-.1249-.0816-.1545.2101.1444.296-.1465.296-.1465.1011-.0592.1293-.1314.1293-.1314l-.0347-.0361c.3198.0361.6007-.1227.6007-.1227.0325-.0289.0354-.0527.0238-.0759-.0238-.0469-.1155-.0743-.1155-.0743s-.7783.0491-.8266.0614c-.1704.0404-.0903.1963-.0953.296-.0073.1256-.0527.1674-.0527.1674.0498-.1097.0317-.1494-.0166-.257-.0448-.0989-.1242-.0621-.0946-.1278.031-.0693.0888-.14.2635-.1653.1372-.0173.3119-.2714.3227-.4606.0015-.0498-.0152-.0751-.0433-.0837-.0859-.0289-.265.0729-.3343.1119-.0606.0397-.3313.1039-.3313.1039s.1075-.0216.223-.0852c.1127-.0635.3307-.1934.3949-.1934.0636 0 .2968-.0499.369-.0499.3891-.1277.205-.2909.1191-.2974-.0405-.0029-.4541.0787-.5133.0787-.0722 0-.7646.3249-.8505.366-.0852.0441-.3061.553-.3342.6512-.0296.0968-.1401.387-.1401.387-.1942-.0462-.2931.1444-.3718.2411-.0931.1076-.47.5942-.5357.6649-.0664.0729-.5934.3993-.5934.3993-.1386.2447-.047.4274-.06.4028 0 0-.1205-.1328-.0815-.3436 0 0 .0512-.1451.013-.2484-.034-.0491-.0838-.1213-.1004-.1458-.0325-.0441-.0621-.0794-.0765-.0968 0 0-.4296-.2736-.3559.7437" clip-rule="evenodd"/>
  <path fill="#333" fill-rule="evenodd" d="M78.2847 22.5045c.0122.1466.0267.3098.0433.4874-.4498.0563-.8822.135-1.2237.2028-.1762.1524-.4585.2917-.7516.4021l.0029-.0014c.0181.1155.0607.2043.104.2 0 0 .945-.0029 1.9305-.0917.0433.4714.0917.997.14 1.5356v-.0029c.0491.1148.1423.9833.0924 1.0649.0022 0 .0022-.0058.0022-.0058 0 .0043 0 .0058.0014.0087-.0014 0-.0014-.0015-.0036-.0029-.8959-1.275-2.199-1.7767-2.9535-1.9731-.2086-.0152-.3357-.0181-.3739.322 0 0-.0426.5176-.0238.7919.0166.2145.1241.5884.2635.6332.1393.0455.3075.013.3075.013-.0411.0101-.1696.0917-.2505.1465-.0794.0549-.2556.1553-.3263.278-.0715.1227.2642.0368.2642.0368.0152.1011.1819.065.1819.065s.0152.2462.5567-.0426c.3053-.1639.4555-.3104.6909-.3834-.078.0253-.2231.1379-.3213.2195-.1826.1466-.3061.2707-.4786.4065-.1589.1241-.6873.3415-1.0801.4454.0722.0773.2368.0181.2368.0181-.0022.9565 1.4598.1566 1.4598.1566-1.1789.9602-1.6482.0101-1.9384.3978 1.3659.9263 2.8488-.7068 3.1448-1.0266.3415-.3639.779-.2917.779-.2917s-.0058.3596-.0455.8166c0-.0029.0014-.0101.0014-.013.1235 1.3803.2274 2.5181.2419 2.6777.0462.4512.0462.6165-.1163.6967-.223.1111-.3609.0974-.5855-.0592-.14-.0989-.2599-.2145-.3653-.3357-.0007 0-.0021.0043-.0021.0043l.0021-.0043c-.153-.1791-.2649-.3625-.3378-.4989.1913.1242.3443.1307.4425.1112.0116-.0029.0354-.0087.0354-.0087.0577-.0166.0917-.0375.0946-.0419l.0664-.0483-.0693-.0419c-.013-.0087-.0239-.0173-.0368-.0246 0 .0015-.0015.0015-.0015.0015v-.0015c-.6793-.4533-.8143-1.2417-.8411-1.5211.0231.1935.1177.5992.5011.8165.6584-.8317.8995-1.4338.5544-1.8301-.1552-.1791-.7176.1335-1.0677.3761-.2549.1791-.5083.3682-.9061.6967-.3595.2989-1.1111 1.0418-1.1111 1.0418s.8166-1.0757.3834-1.0238c-.2736.1329-.426.5516-.6584.9617-.1906.3826-.1805.4656-.5371.6331-.0181.7646 1.4301-.0917 1.9543-.6143.3104-.3119.4057-.426.4952-.6801l-.0274.0736c-.0599.1704-.0924.3357-.1069.4924-.1992.1732-.1191.1155-.2902.2339-.0086.0087-.0303.0238-.0635.0491-.2455.1848-1.1039.8374-1.8569 1.1623-.3386.1451.0239.7249.0239.7249-.0629.3891.493.7826.493.7826s.2737.0909.5162-.0665c.2722.1025.7083-.0736 1.1169-.3046.5227-.2975.9948-.6852.9948-.6852-.1472-.1494-.2591-.1877-.3811-.2382 0 0-.1538-.0527-.4195 0-.2686.0505-.6404.2014-1.2576.6007 0 0 .5862-.5263 1.1139-1.0931.1538-.1682.0073-.5263.0073-.8786.0324.5963.3241.9999.3284 1.0071l.13.1776-.0318-.2187c-.026-.1733-.0065-.3906.0159-.5516.1747.5249.3574.862.522 1.0858h.0014v.0029c.1646.2245.3105.3401.4159.4202.3162.2469.8035.5768 1.1406.8014v.0007h.0015c.2158.1429.3696.2425.3732.2454l.0383.0246.0303-.0339c.0094-.0087.8266-.8505 1.2418-1.358.1675-.2072.4707-.5812.5768-1.6836.0578.1523.1227.3581.1379.5357l.0101.1227c-.0014.0152-.0029.0224-.0058.0368l.0058-.0382.0087.096.0866-.2036c.0036-.0065.1855-.4426.1018-1.0079-.0585-.3992-.2484-.8612-.7263-1.2872l-.1249-.1126.0361.166c0 .0101.2289 1.0858-.496 1.8107l-.0563.0577.0744.0325c.0101.0058.2613.1069.5451-.1891-.0672.2498-.2116.6526-.4982.9717-.1834.2029-.314.2498-.5588.1892-.1761-.0397-.2122-.2022-.2693-.6491-.0375-.2974-.5429-3.9144-.8706-6.2593.9991-.1335 1.9456-.3508 1.9456-.3508.0462-.0072.0693-.1112.0556-.2339-.0152-.1257-.0621-.2231-.1068-.2188 0 0-.9855.0029-1.9926.0975-.0238-.1697-.0462-.3242-.0664-.465.0361.0015.0743.0037.1039.0015-.101.005-.244-.0101-.3703-.0101-.0794 0-.1293.0151-.1841.0382M72.4548 31.1095c.0736-.2101.0368-.9718.0368-.9718 0 .1213-.0252.5545-.3162 1.0194-.1025.1639-.218.8043-.218.8043s.0715.1689.34.0974c-.0267-.4512.0477-.6331.1574-.9493M76.7915 21.9183s-.5942.2477-.7942.3718c-.3638.2181-.4938.6058-.5118.7357-.0311.2354-.0542.4794.5299.2736 1.0504-.3682 1.036-.4433 1.036-.4433-.1588-.1133.0202-.888.0202-.888-.0505-.0736-.2801-.0498-.2801-.0498M84.4617 5.5857l2.7326-.00072.0029.00361-.6079 2.65533-.005.01227.0021-.00505-.0007.00649.0065-.01371 1.6894-2.12975h.0057l1.7046 2.13985-.6188-2.66326.0037-.00217 2.7347-.00289-2.4691-1.17461 1.7074-2.13985-2.4582 1.1941-.6035-2.669045-.5993 2.665435-2.4582-1.19771-.005.00577 1.7059 2.13553v.00288l-2.4698 1.1775M87.2338 41.6695c-1.7457 1.3478-4.0061 2.1586-6.4795 2.1586-2.4698 0-4.7331-.8108-6.4795-2.1586-1.7449 1.3478-4.0068 2.1586-6.4802 2.1586-.1877 0-.3386-.0043-.5249-.0123.6151.7162 1.2858 1.3818 2.0107 1.9904 1.911-.2476 3.5917-.9869 4.9944-2.0698 1.7464 1.3472 4.0097 2.1601 6.4795 2.1601 2.4734 0 4.7338-.8129 6.4795-2.1601 1.4042 1.0829 3.0878 1.8208 4.9973 2.0691.722-.6093 1.3934-1.2735 2.0077-1.9897-.1848.008-.3342.0123-.5234.0123-2.4726 0-4.7352-.8108-6.4816-2.1586M94.2412 43.8158l.0093-.0116c-.0043.0044-.0086.0087-.0115.0116h.0022M75.4704 14.8982s-.1567.0953-.2556.0823c0 0-.2014.153-.2635.3292-.0339.0931-.0556.1328-.1076.1841-.0577.0613-.1213.0909-.1213.0909 0 .0383-.0108.0751-.0296.1148-.0411.0787-.1025.1848-.1566.239-.0845.0866-.0939.187-.0773.2209.0448.0628 0 .0888-.018.1704-.0159.0621.0231.2072.0209.2693-.0101.1682-.0339.192-.0751.2657-.044.0765.0231.1624.0231.1624-.0187.0202-.0657.0455-.0974.052.1126.275.4295.2418.5624.2259.0476-.0057.1942.0087.2815.0174.104.0115.2996.0577.3899.039.2707-.0499.1848-.3069.1761-.3892-.0202-.0852-.174-.2021-.174-.2021s.1329.0563.2527.0585l-.0144-.0657s-.039-.0138-.1054-.0304c-.0773-.0173-.2498-.0231-.2498-.0231s.2411-.0469.4036-.0245l-.034-.213c.3343.0065.2693-.1877.2217-.2931-.0282-.0592-.0795-.1906-.1141-.322-.0253-.0975-.0491-.1747-.0491-.1884 0-.0087.0347-.0809.0238-.1357-.0411-.2152-.0325-.579-.0325-.579-.0787 0-.1732-.0556-.1732-.0556s-.1047.0462-.2072 0m.1494.9421c-.0418.0252-.0714.0375-.127.0086-.0693-.0324 0-.1061-.1791-.1321 0 0 .0296-.0289.1177-.0512.1401-.0412.2447.0209.2447.0209s-.0101.1263-.0563.1538m.0687-.1928c-.0845-.0123-.1271-.0621-.2426-.0383-.1155.0217-.2173.0318-.3176.0051 0 0 .1212-.0318.1949-.0736.0722-.0441.2621-.1213.5234.018 0 0-.0744.1011-.1581.0888" clip-rule="evenodd"/>
  <path fill="#333" fill-rule="evenodd" d="M87.2339 37.5349c-1.7456 1.3471-4.0061 2.1622-6.4795 2.1622-2.4697 0-4.733-.8151-6.4794-2.1622-1.745 1.3471-4.0069 2.1622-6.4803 2.1622-1.2128 0-2.3578-.1949-3.4321-.5545h-.0014c.3537.8332.7688 1.6331 1.2395 2.394.7133.1487 1.4317.2274 2.194.2274 2.4734 0 4.7353-.8136 6.4803-2.1615 1.7464 1.3479 4.0097 2.1615 6.4794 2.1615 2.4734 0 4.7339-.8136 6.4795-2.1615 1.7464 1.3479 4.009 2.1615 6.4817 2.1615.7631 0 1.4778-.0787 2.1947-.2274.47-.7609.8851-1.5608 1.2374-2.394-1.0742.3567-2.2192.5545-3.4321.5545-2.4727 0-4.7353-.8151-6.4817-2.1622M73.3805 16.7123c.0087-.0736.013-.0909.0282-.1595.0332-.1668.1126-.2982.1126-.2982-.179.6036.1018.8173.0549.7841 0 0-.0903-.2368.0563-.4195 0 0-.0419.1921.0115.2455 0 0 .0073-.1783.1119-.3141.0881-.1169.1141-.179.1415-.2931.0347-.153.0542-.218.0903-.2779 0 0-.0376.0844-.0477.2563-.0036.1032-.0065.1147-.0361.1978-.0613.1718-.1754.501.078.6757 0 0-.1335-.275.0022-.4505 0 0-.0303.2758.1213.335 0 0-.0498-.2101.0303-.3812.0556-.1148.0556-.2512.057-.3003 0 0 .0491.1855 0 .309-.0426.0996-.0303.2411.0433.3104 0 0-.0519-.0881.0397-.2137.0932-.1234.1466-.2729.1156-.4028-.0419-.1769-.1646-.2592.0512-.548 0 0-.0361.2123-.0036.3343-.0065-.034-.0094-.0809.0072-.1459.0426-.1711.0903-.1234.0426-.3104-.031-.1184.0946-.2339.0946-.2339s-.0144.0188-.0173.0852c0 .0303.0238.0751.0353.1047.0138.039.0188.1249.0188.1249.0368-.06.0238-.2022.0195-.3018-.0087-.1264.0578-.2498.0578-.2498s-.013.0469-.0058.1812c.0043.0895.031.161.031.2289 0 0 .0665-.0159.0751-.1906.0101-.148.0585-.2036.0462-.3242.0823.0975.034.322.034.322.1155-.1437.0606-.2123.0418-.3314-.018-.1097.1062-.1855.1062-.1855-.052.0505-.0354.1725.0281.179.0578.0065.161-.0736.161-.0736s.2014-.0448.2014-.218c0 0 .0838.1949.213.0332 0 0 .0014.0649.0484.1025.1675.0549.0931-.244.0931-.244s.0419.0245.0758.0736c.0874.1199.039-.096.039-.096-.1184-.2152-.5819-.3169-.8035-.3415-.2195-.026-.4686-.0383-.7191-.026-.348.0202-.5119.1668-.6729.3011-.1537.1285-.2988.4129-.4461 1.0446-.1458.6332-.3068 1.1371-.3068 1.2187.0115.4274.4079.1913.4432-.1163M76.929 24.0647c-.4793-.2296-.8714-.3682-.8714-.3682-.7219.1798-.2714.4657-.1711.5097.33.135.8216.392 1.3393.7205.5306.3379 1.2807.8288 1.3002.3314-.2621-.4729-.9913-.9053-1.597-1.1934M72.1113 7.75157c-.7971 0-1.5197-.30683-2.0619-.80353.6562.8223 1.6843 1.33993 2.8192 1.33993 1.9796 0 3.5816-1.60344 3.5816-3.58303 0-1.97958-1.602-3.58447-3.5816-3.58447-1.1255 0-2.163.52846-2.8192 1.3421.5422-.49814 1.2648-.80353 2.0619-.80353 1.6807 0 3.0437 1.36376 3.0437 3.0459 0 1.68142-1.363 3.04663-3.0437 3.04663M73.1051 17.8986c-.0288-.2253.1646-.2845.2635-.3249 0 0-.1451.0036-.3718.192-.0722.0592-.1963.174-.27.2614-.244.3068-.5638.7551-.6981 1.2172-.2671.9241-.2902 1.3125-.3155 1.8467-.0159.3393-.1097 1.5472-.1357 2.3182-.0166.5075-.0419.8317-.0462 1.0714-.0108.2375-.0534 7.1451-.0534 7.1451l.1285-1.5933.3761-3.8581s.1805-1.4721.2159-2.3984c.0368-.9219.1097-2.6849.1465-2.9383.0354-.2577.1805-.9132.3148-1.0714l-.1812 5.7395s.0469 1.2512.0599 1.7024c0 0-.0469 2.8055-.0469 2.9297l.3638 1.9211c.1091.0563.2809.0714.4866-.0852l-.2202-.5834-.314-1.7131s.0938-.0116.1689-.0874c.0758-.0722.1213-.2541.1213-.2541.0238-.5841.5841-3.9159.7783-4.4992.1942-.5841.2678-2.0908 1.7233-2.9918 0 0-.1683-.1689-.4599-.218-.2917-.0491-.2173-.0744-.2173-.0744.1104-.1776-.1957-.6078-.1957-.6078-.3487-.5668-.5487-.6592-.8259-.9804-.3646-.4195-.0245-.5494-.0245-.5494.0635.2822.1689.4122.3147.6136.1466.2036.5357.9162.5357.9162s.148-1.0281-.5667-1.8728c-.1754-.2057-.3444-.3754-.4938-.5183-.0635-.0585-.1213-.1148-.1762-.1646-.0815-.0758-.2469-.2419-.2591-.2621-.0203-.0224-.0188-.0375-.0318-.0585.0592.0585.1509.1191.288.1776.5668.2462 1.1299.3624 1.4129.1177.0946-.0657.1025-.2946.0736-.3581-.0454-.1032-.1198-.148-.0454-.361.0252-.0722.0512-.1552-.1408-.166-.2231-.0123-.392-.1538-.4318-.2216-.0238-.0383-.0433-.1776-.0433-.1776s-.0801.018-.1285-.0008c0 0-.0859.1098-.1581.0715 0 0-.1523.096-.3198.0123l-.2361.0714c0 .1596-.1011.3401-.1011.3401s-.1913.2418-.2635.3249m.967 3.2914c.2491.5934.6844.4663.6844.4663-.8266.3863-1.1334 1.8374-1.1334 1.8374.0758-1.1927.6187-1.5175.449-2.3037m-.6024-2.6345s-.0968-.0397-.2462-.1061c-.1242-.0571-.2938-.1192-.392-.3025-.0556-.1394.1032-.322.1761-.3812 0 0-.2368.2613.4621.7898M80.7546 47.9627c-2.4705 0-4.7339-.8122-6.4795-2.1601-.8447.6526-1.8114 1.1782-2.864 1.5493h-.0022c.6548.4036 1.3393.766 2.0468 1.0872.2851-.1761.5595-.3682.8194-.5667C76.0207 49.216 78.2841 50 80.7546 50c2.4726 0 4.7345-.784 6.4831-2.1276.2584.1985.5306.3906.8165.5667.706-.3212 1.3897-.6822 2.046-1.0872-1.0533-.3711-2.0208-.8967-2.8625-1.5493-1.7486 1.3479-4.0105 2.1601-6.4831 2.1601" clip-rule="evenodd"/>
  <mask id="b" width="36" height="24" x="63" y="14" maskUnits="userSpaceOnUse" style="mask-type:alpha">
    <path fill="#fff" fill-rule="evenodd" d="M63 14.1016h35.5408v23.5278H63V14.1016Z" clip-rule="evenodd"/>
  </mask>
  <g fill="#333" fill-rule="evenodd" clip-rule="evenodd" mask="url(#b)">
    <path d="M86.6891 16.7989c-.0448-.1075-.0534-.3609-.096-.5227-.0224-.0866-.1134-.2158-.2014-.3378 0 0 .0909.1133.2635.218.1566.0953.2851.2967.2888.3877 0 0-.0477-.083-.1538-.0672-.0787.0094-.1249.174-.1011.322.1588.1863.1985-.0685.1985-.0685s.0708.0563.034.1544c0 0 .1003.1105.2209-.0339.078-.0946.0866-.4339-.2772-.6945-.3625-.2621-.3524-.4606-.3524-.4606s.1069.1574.3127.2375c.2035.0809.301.1877.3588.3249 0 0-.0354-.0794-.2159-.1069 0 0 .4259.4469.2953.7249 0 0 .1783-.1495.0635-.4014 0 0 .1343.114.1343.2252 0 0 .1408-.1891-.1639-.5039-.1588-.1675-.1429-.2505-.1769-.3126-.0332-.0635-.0736-.0967-.1768-.2-.1018-.1018-.1083-.2173-.1647-.3588 0 0 .0347.091.148.1545 0 0 .0441-.2852-.0563-.4086 0 0 .1083.1198.1365.2332.0289.1119.1018.2426.1523.3111.052.0686.1105.1711.0866.3516-.0245.1848.1415.2361.1813.2751.0397.039.2389.1928.2108.4324 0 0 .1083-.1617-.0621-.4432-.1697-.2852-.0989-.3523-.0867-.3819 0 0 .034.1869.1878.2497 0 0 .0389-.1025-.2101-.3985-.2498-.2952-.4202-.579-.4101-.9255 0 0 .0123.1307.213.2483 0 0-.0708-.1739-.0982-.283-.0282-.1083-.0787-.5162-.7212-.6374-.2116-.013-.9971.1176-1.179.249-.1805.1314-.3891.3783-.3667.6628.0043.052.1436.3422.1776.3675.0029.0339.0029.0671.0043.1003.0014.0462.0014.0823 0 .091-.0043.0368-.0469.127-.0079.161.0202.018.0317.0534.0317.0916 0 .1076-.114.5177-.114.5935 0 .0772.0173.174.1523.1567.0505-.0087.0902-.0203.1184-.034.0043.0426.0014.1444-.0029.1791.0498-.0484.1105-.0397.1653-.0397.091 0 .2505.0166.2505.0166s-.1335.0296-.2267.0491c-.0902.0166-.1313.0079-.1313.0079l-.0181.0874s.1978-.013.2881-.0838c0 0-.0499.0975-.1206.1263-.0888.0361-.1307-.0346-.1675-.0425 0 0 .0874.0288.0939.1357.0108.1097-.0484.2758.1249.2909.0888.0101.1927.0166.2902.0174.0946 0 .1819-.0051.2324-.021.0961-.0281.5668-.2317.6433-.4664m-1.0217-1.0316c-.0585.0585-.0145.1531-.1495.1632-.1191.0086-.1581-.1755-.1581-.1755s.1451-.0678.265-.0613c.1119.0057.1429.0418.1429.0418s-.0563-.0108-.1003.0318m-.3907-.0353c-.0729.0022-.127-.0368-.127-.0368.1256-.0939.3378-.1682.4541-.1625.2129.0094.3032.1661.3032.1661-.3639-.1415-.5552.0282-.6303.0332m.6925-.4577c-.057-.0159-.2787.07-.4815-.0087-.2 0-.4202-.2296-.4202-.2296-.0144-.0678-.0043-.0823.0383-.0707.0418.013.0685.0823.101.1285.0325.0484.1228.1235.2809.1718 0-.1039-.0693-.1718-.0693-.1718s.0888.0917.1761.1141c.5263.1169.2484-.1264.2484-.1264.3833.1711.2707.3762.3682.5978-.047-.0693-.0585-.1704-.0975-.2498-.07-.1393-.1444-.1552-.1444-.1552M95.339 34.8317h-3.2422v-1.9781h-3.2387v1.9781h-3.2408v-1.9781H82.375v1.9781h-3.2408v-1.9781h-3.2394v1.9781h-3.2423v-1.9781h-3.2408v1.9781h-3.2401v-1.9781h-3.2018c.0476 1.3493.2461 2.6626.579 3.9173 1.2915.5516 2.7224.8584 4.2443.8584 2.4705 0 4.7324-.8136 6.4788-2.1601 1.7478 1.3465 4.0089 2.1601 6.4809 2.1601h.0058c2.4719 0 4.7309-.8136 6.4802-2.1601 1.7456 1.3465 4.0075 2.1601 6.4795 2.1601 1.5175 0 2.9513-.3068 4.24-.8584.3342-1.2547.5335-2.568.5826-3.9173H95.339v1.9781"/>
  </g>
  <path fill="#333" fill-rule="evenodd" d="M73.9661 18.5266c-.1971-.0375-.1379.0917-.0737.1567.3884.3884.9876 1.1703 1.0129 1.8626 0 0 .4512.1689.5299-.4873.047-.3927-.0888-1.0555-.1588-1.2367 0 0 .0491.0953.1913.4635.1978.522.1235.7068.2094 1.1825.0361-.0989.052-.2216.0642-.3443.0058-.1192.0145-.2448.0181-.3523.0173-.3552.0043-.6635-.0549-.7964-.0715-.1689-.1112-.2505-.1437-.2902-.0317-.0426-.4952-.6331-.4952-.6331-.026.1386-.0866.2397-.1661.3119-.1761.2158-.553.2375-.9334.1631M86.0704 18.3773c.1668.0462.3906.0945.5913.1025.2115-.0202.426-.0665.5552-.1531.1011-.0671.218-.1841.3162-.3133.0448-.0549.0809-.1148.1133-.1726.0123-.0202.0152-.0397.0239-.0606.0245-.0859.0325-.2476-.2058-.4288-.0946-.0672-.2029-.3061-.2115-.3242-.0982.0325-.1863-.0397-.1863-.0397-.1256.0368-.187-.0433-.187-.0433-.0455.0123-.1451-.0123-.1906-.1451.052.1963-.3508.3891-.4974.5746-.1242.156-.2072-.0397-.2844.0499 0 .1212.0512.1602.0476.2252 0 0-.0043.2065-.0173.2678-.0274.1278-.0722.4101.1328.4607M88.8773 31.8523c-.0296-.1393-.0874-.1227-.231-.0642-.1047.0447-.3018-.0484-.4216-.0751-.1156-.0267-.1322.0116-.2332.0325-.1011.0224-.2448-.0159-.2448-.0159-.2931-.0375-.2693.2866-.2693.2866.0101.0383.0296.0722.0491.1033.0708.0534.135.0657.1805.0888.0397.0209.034.0447.0549.0815 0 0 .3768.2722.5884.0369.0491-.1076-.2289-.2838-.1993-.2679 0 0 .1422.0672.2274.1704.0859.1025.2224.1733.3119.0816.0802-.1228-.2151-.3213-.2151-.3213s.1386.0693.2231.1733c.0902.1112.1682.148.2035.0029-.0541-.1285-.1934-.2311-.1934-.2311s.0642.034.1335.0997c.0859.0808.1567.0563.1357-.0874-.0194-.0368-.1003-.0946-.1003-.0946M16.4203 15.4879l-.8779 2.7622h1.7674l-.8895-2.7622Zm1.8839 5.8825-.6007-1.8836h-2.5543l-.6237 1.8836H13l2.7615-7.6274h1.306l2.7621 7.6274h-1.5254ZM23.6125 15.4879l-.8772 2.7622h1.7674l-.8902-2.7622Zm1.8846 5.8825-.6006-1.8836h-2.5543l-.6245 1.8836H20.193l2.7614-7.6274h1.3061l2.7621 7.6274h-1.5255ZM30.2933 14.9797h-.9472v2.103h.9472c.9256 0 1.3292-.3234 1.3292-1.0858 0-.7284-.3812-1.0172-1.3292-1.0172Zm1.5266 6.3907-1.745-3.0509h-.7284v3.0509h-1.4562V13.743h2.5427c1.1096 0 1.6179.1394 2.0684.5668.4158.3811.6237.9356.6237 1.6525 0 .5891-.1386 1.0627-.4158 1.4323-.2888.3704-.5545.5321-1.1898.7054l1.8951 3.2704h-1.5947ZM39.8848 21.3704V18.1h-3.918v3.2704h-1.4562V13.743h1.4562v3.051h3.918v-3.051h1.4555v7.6274h-1.4555M48.4061 20.9661c-.5537.3812-1.2013.5545-2.1485.5545-.9595 0-1.584-.1617-2.1608-.5545-.7862-.5436-1.0403-1.1789-1.0403-2.5773V13.743h1.4439v4.7266c0 1.1328.5898 1.6988 1.8027 1.6988 1.1096 0 1.6994-.6007 1.6994-1.6988V13.743h1.4555v4.6458c0 1.3984-.2541 2.0221-1.0519 2.5773M55.446 15.558c-.8093-.3588-1.4677-.5436-1.976-.5436-.6815 0-1.1212.2772-1.1212.7053 0 .3234.1848.5198.7285.8086 1.1666.6245 1.9297 1.1096 2.2878 1.4677.3235.3234.5206.8317.5206 1.3638 0 1.363-.9942 2.1608-2.6814 2.1608-.2317 0-.4627-.0116-.6822-.0462-.5429-.0694-.797-.1618-1.5948-.5314-.1039-.0462-.2765-.1271-.4967-.2317l.6129-1.34c.5545.3004.7848.4159 1.0859.5314.3819.1386.7977.2194 1.098.2194.67 0 1.109-.3003 1.109-.7623 0-.3242-.1733-.5437-.67-.8209l-1.1782-.67c-1.3522-.7746-1.7688-1.2829-1.7688-2.1145 0-.3812.1162-.7747.3003-1.0635.1271-.1963.3242-.3927.5668-.566.5544-.3819 1.028-.5082 1.9182-.5082.5082 0 .9594.0577 1.433.1963.3697.1156.5776.1964 1.0858.439l-.5775 1.306M3.99849 32.1996l-2.54198-3.6285v3.6285H.0003357v-7.6274H1.45651v3.5592l2.39181-3.5592h1.67637l-2.62357 3.7101 2.76146 3.9173H3.99849M9.69814 25.6934c-1.44462 0-2.50805 1.1551-2.50805 2.6921 0 1.5493 1.06343 2.6929 2.50805 2.6929 1.43306 0 2.49646-1.1436 2.49646-2.6929 0-1.537-1.0634-2.6921-2.49646-2.6921Zm-.00036 6.6556c-2.38026 0-4.0559-1.6402-4.0559-3.9634 0-2.3565 1.64099-3.9513 4.0559-3.9513 2.40332 0 4.04432 1.5948 4.04432 3.9513 0 2.3232-1.6756 3.9634-4.04432 3.9634ZM21.5807 32.1996v-5.5937c-.0577.3935-.0469.4513-.2895 1.0873l-1.7442 4.5064h-1.306l-1.5948-4.4263c-.1624-.4382-.1733-.5653-.2888-1.2128v5.6391h-1.3182v-7.6274h1.7449l2.0345 5.4428c.0808.2202.1155.3003.1501.5898.0462-.3581.0693-.405.1386-.5898l2.1146-5.4428h1.745v7.6274h-1.3862M31.4106 32.1996v-5.5937c-.0578.3935-.0462.4513-.2888 1.0873l-1.7449 4.5064h-1.306l-1.5948-4.4263c-.1625-.4382-.1733-.5653-.2888-1.2128v5.6391h-1.3176v-7.6274h1.745l2.0337 5.4428c.0809.2202.1155.3003.1502.5898.0462-.3581.07-.405.1386-.5898l2.1146-5.4428h1.7449v7.6274h-1.3861M39.9035 31.7946c-.5545.3812-1.2013.5544-2.1492.5544-.9595 0-1.5833-.161-2.1608-.5544-.7862-.5429-1.0396-1.179-1.0396-2.5774v-4.645h1.4439v4.7266c0 1.1327.5891 1.6995 1.8027 1.6995 1.1096 0 1.6987-.6021 1.6987-1.6995v-4.7266h1.4562v4.645c0 1.3984-.2549 2.0236-1.0519 2.5774M47.7211 32.2689l-3.2704-4.9338c-.0231-.0354-.0693-.1401-.1617-.3003-.0462-.0932-.0809-.1509-.0924-.1625-.0462-.0931-.0693-.1393-.104-.2664v5.5937h-1.3861v-7.6274h1.6749l3.2004 5.0161c.0123.0224.0469.0801.0816.1603.0346.0823.0577.1285.0686.1509l.07.1963.0693.1394v-5.663h1.3753v7.6967h-1.5255M51.1154 32.1996v-7.6274h4.6458v1.2367h-3.1896v1.8843h2.612v1.2367h-2.612v2.033h3.3397v1.2367h-4.7959" clip-rule="evenodd"/>
</svg>
