<svg width="107" height="55" viewBox="0 0 107 55" xmlns="http://www.w3.org/2000/svg" xmlns:xlink="http://www.w3.org/1999/xlink">
  <title>
    AAK_02_venstrejusteret_hvid
  </title>
  <defs>
    <path id="a" d="M.05.58h38.69v35.05H.04z"/>
    <path id="c" d="M.05.22h38.68v25.6H.05z"/>
  </defs>
  <g fill="none" fill-rule="evenodd">
    <path d="M12.43 34.75l-.05-.08a.55.55 0 0 0-.07-.08s-.2.09-.28.2c-.15.23.16.73.16.73-.26-.09-.43-.31-.43-.46-.01-.2.18-.67.18-.67.06-.18.12-.44.19-.7l.2-.86c.19-.63.45-1.33.6-1.96.11-.46.2-.86.22-1.14.07-.67.15-1.94.2-2.77l.02-.37c0-.1.06-1.23.6-1.7.35-.31.68-.26 1.09-.45 0 0-.58-.24-1.3-.08 0 0-1.24.97-1.82 5.3 0 0-.73 4.04-.75 4.45-.01.21.19 1.23.19 1.23s.63.27.76.25c.08-.03.2-.04.38-.09.18-.05.3-.06.61.04-.75-.34-.6-.6-.7-.79M17.69 20.28l.74.03c.22 0 .36-.06.34-.2 0-.12-.32-.19-.32-.19l-.54.09s-.07.23-.22.27M24.72 24.21c0-.06-.11-.98-.11-1.67l-.01-.76c-.01-.21-.22-.12-.26-.03-.1.19-.15.14-.15.14s-.07 0-.08.18c-.03-.14-.04-.13-.08-.17-.15-.14-.24.37-.24.37l-.02.36v.18c0 .26.02.74.18 1.1.03.05.06.07.11.08 0 0-.05.35.06.53.22.33.33.25.33.25.38-.31.27-.43.27-.56M15.88 23.35c0 .2.07.37.18.52-.19.18-.4.41-.45.47-.08.1-.25.15-.25.15s-.18 1.1.23.94c0 0 .06-.26.28-.2.37.07.47-.07.62-.18.1-.08.4-.02.4-.02.22-.05.5.07.54-.14v-.06c-.2-.15-.71-.08-.71-.08s.08-.03.19-.04c.04-.01.1 0 .11-.06 0 0 .05 0 .29.07.2.06.2-.03.22-.07 0-.08-.06-.13-.06-.13s-.25-.1-.38-.12c-.12-.02-.45.02-.45.02l.2-.05c.08-.02.15-.02.14-.08 0 0 .14.02.32.1.13.07.2.07.23.05l.05-.07v-.04c-.02-.1-.12-.15-.12-.15s-.4-.14-.5-.15a2.2 2.2 0 0 0-.45.07c.09-.06.18-.07.3-.09.15-.03.13-.11.13-.11s.03.05.35.14c.08.02.3.14.24-.06a.6.6 0 0 0-.1-.11.87.87 0 0 0-.68-1.39c-.06 0-.11.02-.17.03-.22.32-.5.61-.7.84m.55-.32a.44.44 0 0 1 .74.33c0 .15-.07.26-.17.34l-.1-.02c-.03-.03-.25-.01-.46 0l-.02-.02a.45.45 0 0 1 .01-.63M16.47 34.92c-.43-.32-1.56.22-1.56.22s-.2.47.21.47c.23 0 .62.02.93-.05.24-.05.62.04.95.05.5-.14-.53-.7-.53-.7M9.82 32.43c-.1.54-.3 1.49-.33 1.83-.03.34-.04.94-.04.94.13.08.29.14.35.17l.63-5.17s-.52 1.7-.61 2.23" fill="#FFF"/>
    <g>
      <mask id="b" fill="#fff">
        <use xlink:href="#a"/>
      </mask>
      <path d="M17.93 19.93h.52c.37.02.48-.14.34-.29-.07-.08-.6-.07-.6-.07l-.35.12s.18.04.09.24" fill="#FFF" mask="url(#b)"/>
      <path d="M37.53 24.74l-.2-10.89h.78L34.8 7.29a1.01 1.01 0 1 0-.91 0l-3.31 6.56h.77l-.06 3.19-.2-.77a5.95 5.95 0 0 0-5.9-4.46 5.97 5.97 0 0 0-4.22-4.5V5.17h.32l-1.57-3.09a.79.79 0 1 0-.7 0l-1.57 3.1h.32V7.3a5.97 5.97 0 0 0-4.21 4.5h-.15c-2.77 0-5.1 1.9-5.76 4.46l-.2.77-.06-3.19h.77l-3.3-6.56a1.01 1.01 0 1 0-.92 0l-3.3 6.56h.76l-.19 10.89h-1L0 35.63h8.79l-.2-10.9v-4.95a11.88 11.88 0 0 1 .67-3.51 4.41 4.41 0 0 1 5.76-2.62 4.4 4.4 0 1 1 8.71 0 4.4 4.4 0 0 1 5.75 2.62 11.35 11.35 0 0 1 .66 3.51v4.96l-.19 10.89h8.79l-.2-10.9h-1.01zM3.63 16.3v-.12c.04-.4.37-.71.77-.71a.76.76 0 0 1 .76.7v4.3H3.64v-4.17zm-.35 17.23H1.76v-3.99-.05a.76.76 0 0 1 1.51 0l.01.05v3.99zm1.12-5.26a1.15 1.15 0 1 1 0-2.3 1.15 1.15 0 0 1 0 2.3zm2.64 5.26H5.52v-3.99-.05a.76.76 0 1 1 1.52.06v3.98zm26.54-17.35a.76.76 0 0 1 .76-.7c.4-.01.74.3.76.7v4.3h-1.52v-4.3zm-.36 17.35H31.7v-3.99-.05a.76.76 0 0 1 1.52 0v4.04zm1.12-5.26a1.15 1.15 0 1 1 0-2.3 1.15 1.15 0 0 1 0 2.3zm2.64 5.26h-1.52v-3.99-.05c.03-.4.36-.7.76-.7s.73.3.76.7v4.04z" fill="#FFF" mask="url(#b)"/>
    </g>
    <path d="M20.94 22c.07 0 .17-.01.26-.05.16-.07.38-.27.48-.48a.41.41 0 0 0-.22-.43c-.08-.03-.13-.03-.21 0l-.26.12c.06-.06.03-.17.03-.17.13.09.7-.16.58-.8-.02-.13-.04-.17-.04-.24 0-.1.02-.2 0-.27-.02-.12.04-.33.03-.44 0-.1-.17-.08-.23-.05-.23.1-.24.46-.26.58l-.07-.03c-.05-.02-.06-.06-.12-.11a8.4 8.4 0 0 0-.69-.76c-.13-.12-.22 0-.23.08 0 .1.26.48.26.48.23.3.29.33.29.33l-.06.05s.03-.04-.29-.38c-.03-.03-.32-.44-.43-.55-.12-.12-.24 0-.26.04-.07.16.4.71.4.71.2.29.36.4.36.4l-.07.05c.04-.03-.36-.45-.36-.45-.16-.17-.29-.38-.41-.47-.16-.12-.22.15-.13.26.03.04.08.16.2.31.1.14.48.5.48.5l-.04.03c-.1-.12-.39-.41-.6-.56-.2-.14-.25.04-.2.14.04.1.27.37.32.43.05.06.45.35.48.39l.18.26c.05.06.2.27.28.34 0 0 .18.11.28.06-.1.28 0 .6.27.67" fill="#FFF"/>
    <path d="M20.25 33.8l-.12.63c-.2 1.1.05 1.49.05 1.49s.36-.3.55-1.39l.77-4.4c-.1-.86-.15-1.68.07-1.88l.31-.27.2-1.15 1.01.38c-.41.16-.68.38-.99.6-.6.93-.35 2.15-.29 2.56.08.48-.15 1.2-.15 1.2.1 1.16.3 1.84.3 1.84s.24.6.68.75c0 0-.47-.07-.54-.22 0 0-.12.11-.17.23 0 0-.44.3-.28.57-.16.16-.17.19-.36.31-.2.12-.23.15-.56.29-.11.04-.26.13-.3.21-.02.06.03.07.04.05a.47.47 0 0 1 .16-.12c-.14.07-.13.16-.09.2h.03c.02 0 .07 0 .13-.1.03-.06.08-.1.2-.14-.03.02-.26.1-.16.25.14.06.21-.12.24-.15.1-.1.18-.1.33-.14-.31.09-.34.14-.26.29.07.08.27.09.44.02.28 0 .7-.23.96-.24.1-.01.1 0 .27.05.1.03.37.03.42-.06.17-.33-.4-.7-.51-.76-.1-.05-.35-.23-.35-.23a4.27 4.27 0 0 0 1 .4c.39.05.58-.15.95-.17.89-.8 1.06-1.22 1.33-2.44.12-.49.31-1.24.36-1.82-.03.77-.03.98-.01 1.27.02.46.07 2 .03 2.25-.03.26-.17.32-.17.32s.23.58.73.64c.12.01.26 0 .41-.06 0 0 .5.38 1.24.14.12-.04.24-.1.37-.18.09-.05.1-4 .05-4.53-.02-.35-.06-.45-.16-.62-.14-.29-.39-.52-.39-.52s-.15-.1-.13-.35c.04-.4.09-.36.22-.2.25.34.24.65.3 1.07l.28.45c.1.17.06.48.07.73 0 0 .03 3.53.01 3.87.05-.12.16-.25.16-.25s.01-4.36-.1-5.28c-.04-.24-.15-.35-.18-.55-.08-.62-.1-.79-.26-1.03 0 0 .18.15.35.57.12.29.2.7.3 1.26.06.33.18.83.18.83a4.67 4.67 0 0 0-.59-2.94c-.16-.27-.32-.47-.36-.54-.62-1-.7-1.32-1.33-2.53-.63-1.22-.47-2.24-.47-2.24s.12.44.27.57c.06.04.2.33.13.7-.02.12.02.48.34 1.12.4.8.73 1.4.96 1.69.22.26.33.23.33.23-.11-.93-.91-3.93-.91-3.93s.3.18.43.71c.05.18.13.77.3 1.4.2.85.84 3.11.88 3.18-.23-1.51-.16-1.51-.3-2.12-.1-.37-.06-.89-.13-1.4a22.2 22.2 0 0 1-.15-1.19c-.09-1.5-.56-1.6-.56-1.6.21-.57-.06-.72-.06-.72-.13-.08-.4-.18-.5-.13-.19.13-.14-.16-.34-.07-.12.06-.43.16-.43.16.58-.44.34-.58.34-.58-.53.73-1.27.66-1.27.66-.22.02-.44.01-.57 0-.09-.01-.14.07-.18.16l-.04-.05c.04-.06.08-.12-.04-.21a.35.35 0 0 1-.1-.1s-.1-.2 0-.36c.06-.11.16-.2.16-.35-.16 0-.4.05-.48.15-.09.1-.15.18-.27.28-.1.1-.16.23-.2.43-.05.18.18.28.18.28s-.48-.06-.2-.46c-.04.04-.23.11-.34.2-.11.09-.18.32-.25.44s-.18.37-.25.45c-.07.08-.29.51-.27.66.06-.1.3-.2.3-.2.1-.04.19-.06.3-.04.1 0 .1.03.3-.14.19-.18.25-.4.48-.55.14-.1.34-.17.47-.25.01.05.04.1.09.1.04.02.07 0 .1-.02a8.68 8.68 0 0 0-.03 1.11c.05.47.15.7.2.91 0 0-.3-.49-.33-.75 0 0-.02 1.64.15 1.98l-.24.2-.06.03a11.79 11.79 0 0 1-.23.17c-.13.08-.4.24-.46.26-.07.03-.15.02-.26.02-.12 0-.18.07-.25.14 0 0-.31.06-.4.01a7.61 7.61 0 0 1-.54-.39c.15-.04.26-.12.28-.23.01-.07-.01-.14-.06-.2l-.48-.28c.36-.04.43.04.59-.1l.68-.6c.24-.19.17-.54.22-.77.03-.86-.82-.41-.82-.41l-.07.21c-.02.05-.14.08-.17.06.61.41.27.9.27.9s.27-.48-.25-.63c-.63-.19-.77-.75-.86-.86-.2-.26-.36.05-.52.1-.12.03-.16.04-.41 0-.17-.02-.26-.16-.31-.24-.06-.1-.05-.26-.05-.26s-.18.17-.03.42c.15.24.27.65.3.8a3.77 3.77 0 0 0 .94 1.45c-.08.05-.15.11-.16.2-.03.13.06.26.22.36l-.01.03-.36.18c-.13.08-.2.15-.22.23 0 .11.07.12.2.03l.39-.15c.07-.03.15 0 .15 0s-.57.24-.66.3c-.08.04-.18.11-.17.24.01.06.08.08.14.06l.44-.17c.13-.05.1-.02.16-.01 0 0-.61.26-.66.3-.05.02-.07.08-.07.14 0 .07.07.11.13.09l.4-.18c.09-.04.15 0 .15 0l-.54.26-.02.06-.92-.33-.17.93 1.28-.02-.9 5.15c.14.59.18 1.16-.34 1.92zm3.55-3.15c-.11-.47-.68-1.52-.33-1.55.15-.01 1 .73 1.39.73.39 0 .49-.18.56-.3.29-.53.44-.6.44-.6-.1.12-.2.28-.35.6l-.46.9c-.45.96-1.43 2.27-1.43 2.27.22-.48.25-1.75.18-2.05zm2.15-.63c0-.16-.02-.26-.07-.27-.03.02-.24.2-.37.6-.13.38-.24.67-.62 1.64-.62 1.61-1.08 1.88-1.08 1.88.1-.35-.15-.79-.15-.79.56-.6 2.24-3.68 2.49-3.97.25-.29.3-.18.3-.18-.28.23-.42.65-.5 1.1zm.41 4c.05-.19.06-2.42.06-2.42.07.84.36 2.77.36 2.77-.34-.03-.47-.18-.42-.36zm1.88-3.38c-.1-.7-.12-.87-.33-1.21 0 0 .48.47.52 1.35.04.88-.05 3.15-.12 3.77 0 0-.38.48-.65-.35 0 0 .27.17.37-.48.1-.66.31-2.38.2-3.08zm-3.19-9.59c.46.11.63.04.8 0-.05.18-.42.17-.42.17a1 1 0 0 1 .29.3c.15.26-.22.12-.22.12-.02-.34-.45-.59-.45-.59zm.13 2.14c.04.18.09.54.16.85l-.36.33c.34-.3.23-1 .2-1.18zm-3.77 2.99c.06.03.2.03.25 0l.4-.12c.13-.05.13-.03.16-.12.04.22.17.31.38.34.26.04.4-.16.6-.16l.24.02.05.13c.2.16.33-.06.25-.22 0 0 .12.12.3.13.22.01.72-.12.97-.2.26-.1.78-.3.85-.46.05-.12-.21-.58-.3-.85l-.12-.28c.04.12.16.36.3.63l.06.13a13.33 13.33 0 0 0 .6 1c.23.24.44.36.57.6-.22-.31-.45-1.38-.57-1.8-.13-.4-.54-1.14-.64-1.33-.11-.2-.28-.83-.3-1.05-.04-.27 0-.62 0-.62s.45 1.34.5 1.53c.04.2.5 1.65.6 1.86.1.2.7 1.89.86 2.06a6.18 6.18 0 0 1 .84 1.06.98.98 0 0 0-.41-.3c-.2-.15-.18-.23-.2-.33-.04-.21-.23-.43-.23-.43a1.2 1.2 0 0 1-.24-.27l-.2-.37s-.44-.4-.71-.52c-.3-.15-.46-.23-.68-.14-.68.3-1.38.33-1.44.32-.61-.1-.23.2-.23.2.33.06.3.18 1.1.22.75.04.86.05 1.26.13.4.07.62.3.62.3a2.2 2.2 0 0 0-1.28-.08c-.88.15-1.7-.58-1.7-.58-.56-.25-.49.1-.41.18.11.12.21.19.21.19-.38-.14-.2.11-.2.11.25.14.43.28.43.28 1.04.96 1.78 1.12 2.23 1.05.06-.02.2-.07.26-.05-.17.07-.22.12-.28.17-.22.19-.76.28-1.17.34-.53.07-1.07-.06-1.25-.2-.12-.09-.15-.4.08-.48.32-.1.4-.2.41-.38.01-.13-.28-.45-.28-.45-.48-.27-.66-.09-.66-.09l.16-.92h-.61c-.08 0-.18.02-.27 0l-.05-.01h-.35l.02-.14-.13-.07s-.09 0-.17.03l-.27.09-.21-.08zm4.93 1.78s-.48.32-1.18-.09c-.7-.4-.96-.6-1.02-.64 0 0 .7.32 1.16.22.46-.1.64-.19 1.07-.18 0 0-.7.2-.66.58.01.15.31.18.63.1zM15.54 25.65l.02-.03-.02.03M13.97 22.62s.05.7.3.82c.28.14.46.48.84.3 0 0 1.4-1.32 1.4-1.88-.18-.12-.24-.31-.26-.34.12.24.36.37.5.24.35-.3.35-.37.35-.37.21.04.45-.21.44-.27a.23.23 0 0 0-.09-.17c.23.16.32-.16.32-.16a.33.33 0 0 0 .14-.14l-.03-.04c.34.04.65-.14.65-.14.04-.03.04-.05.03-.08-.03-.05-.13-.08-.13-.08s-.85.05-.9.07c-.18.04-.1.21-.1.32-.01.13-.06.18-.06.18.05-.12.03-.16-.02-.28-.05-.1-.13-.07-.1-.14s.1-.15.29-.18c.14-.02.34-.3.35-.5 0-.05-.02-.08-.05-.1-.1-.02-.29.09-.36.13-.07.04-.36.11-.36.11s.11-.02.24-.09c.12-.07.36-.2.43-.2s.32-.06.4-.06c.42-.14.22-.32.13-.33l-.56.09c-.08 0-.83.35-.93.4-.09.04-.33.6-.36.7l-.15.43c-.21-.05-.32.15-.4.26l-.59.72c-.07.08-.64.44-.64.44-.16.26-.06.46-.07.44 0 0-.13-.15-.09-.38 0 0 .06-.16.02-.27l-.11-.16-.09-.1s-.46-.3-.38.8" fill="#FFF"/>
    <path d="M16.68 25.08l.05.53c-.5.06-.96.14-1.33.22-.2.16-.5.31-.82.43.02.13.07.23.12.22 0 0 1.02 0 2.1-.1l.15 1.67c.05.12.15 1.07.1 1.16a5.64 5.64 0 0 0-3.22-2.15c-.22-.02-.36-.02-.4.35 0 0-.05.56-.03.86.02.24.14.64.29.7.15.04.33 0 .33 0-.04.02-.18.1-.27.17-.09.06-.28.16-.35.3-.08.13.28.04.28.04.02.1.2.07.2.07s.02.27.6-.05c.34-.18.5-.34.76-.41-.09.02-.24.15-.35.23-.2.16-.33.3-.52.45-.17.13-.75.37-1.18.48.08.09.26.02.26.02 0 1.04 1.59.17 1.59.17-1.28 1.05-1.8.01-2.11.43 1.49 1.01 3.1-.76 3.42-1.11.37-.4.85-.32.85-.32s0 .4-.05.89v-.02l.27 2.92c.05.49.05.67-.13.76-.24.12-.4.1-.64-.07a2.24 2.24 0 0 1-.4-.36c-.16-.2-.28-.4-.36-.55.2.14.37.15.48.13l.04-.01a.3.3 0 0 0 .1-.05l.07-.05-.07-.05-.04-.02a2.27 2.27 0 0 1-.92-1.66c.02.21.13.65.54.89.72-.9.98-1.56.6-2-.16-.19-.77.15-1.15.42-.28.2-.56.4-.99.75-.4.33-1.2 1.14-1.2 1.14s.88-1.17.4-1.12c-.29.15-.46.6-.7 1.05-.22.42-.2.5-.6.69-.01.83 1.56-.1 2.13-.67.34-.34.45-.46.54-.74l-.03.08c-.06.19-.1.37-.11.54-.22.19-.13.12-.32.25l-.07.05c-.27.2-1.2.92-2.02 1.27-.37.16.03.79.03.79-.07.42.53.85.53.85s.3.1.56-.07c.3.11.78-.08 1.22-.33.57-.33 1.08-.75 1.08-.75-.16-.16-.28-.2-.41-.26 0 0-.17-.06-.46 0-.29.06-.7.22-1.37.66 0 0 .64-.58 1.22-1.2.16-.18 0-.57 0-.95.04.65.36 1.09.36 1.1l.14.19-.03-.24c-.03-.19 0-.42.02-.6.19.57.38.94.56 1.18.18.25.34.38.46.46.34.27.87.63 1.24.87l.4.27.05.03.03-.04c.01 0 .9-.92 1.35-1.48.18-.22.51-.63.63-1.83.06.17.13.4.15.59l.01.13v.04-.04l.01.1.1-.22s.2-.48.1-1.1a2.3 2.3 0 0 0-.78-1.4l-.14-.12.04.18c0 .01.25 1.18-.54 1.97l-.06.06.08.04c.01 0 .28.12.6-.2-.08.27-.24.7-.55 1.05-.2.22-.34.27-.6.2-.2-.04-.24-.21-.3-.7l-.95-6.81c1.09-.15 2.12-.38 2.12-.38.05-.01.07-.12.06-.26-.02-.13-.07-.24-.12-.24 0 0-1.07 0-2.17.11l-.07-.5h.11l-.4-.02a.47.47 0 0 0-.2.05M10.34 34.44c.08-.23.04-1.06.04-1.06 0 .14-.03.6-.35 1.11-.1.18-.23.88-.23.88s.07.18.37.1c-.03-.49.05-.68.17-1.03M15.06 24.44s-.65.27-.87.4c-.4.24-.54.66-.55.8-.04.26-.06.53.57.3 1.15-.4 1.13-.48 1.13-.48-.17-.12.02-.97.02-.97-.05-.08-.3-.05-.3-.05M23.4 6.66h2.98l-.66 2.9v.01-.01l1.84-2.32 1.86 2.33-.67-2.9h2.98l-2.69-1.29 1.86-2.32-2.67 1.3-.66-2.91-.65 2.9-2.68-1.3 1.85 2.33-2.69 1.28M26.42 45.93a11.51 11.51 0 0 1-7.05 2.35c-2.69 0-5.15-.88-7.05-2.35a11.51 11.51 0 0 1-7.63 2.34c.67.78 1.4 1.5 2.2 2.17 2.07-.27 3.9-1.08 5.43-2.26a11.53 11.53 0 0 0 7.05 2.35c2.7 0 5.15-.88 7.05-2.35a11.2 11.2 0 0 0 5.44 2.26c.79-.67 1.52-1.4 2.19-2.17l-.57.01c-2.7 0-5.16-.88-7.06-2.35M34.05 48.27v-.01.01M13.62 16.8s-.17.1-.28.09c0 0-.22.16-.29.36a.45.45 0 0 1-.11.2l-.14.1c0 .04 0 .08-.03.12-.04.09-.1.2-.17.26-.09.1-.1.2-.08.24.05.07 0 .1-.02.19-.02.06.02.22.02.29-.01.18-.04.2-.08.29-.05.08.02.17.02.17a.25.25 0 0 1-.1.06c.12.3.47.26.61.25.05 0 .21 0 .3.02.12 0 .33.06.43.04.3-.06.2-.34.2-.42-.03-.1-.2-.22-.2-.22s.15.06.28.06l-.02-.07-.11-.04-.27-.02s.26-.05.44-.03l-.04-.23c.36 0 .3-.2.24-.32a2.3 2.3 0 0 1-.12-.35l-.06-.2c0-.01.04-.1.03-.15-.05-.24-.04-.63-.04-.63-.08 0-.19-.06-.19-.06s-.11.05-.22 0m.16 1.02c-.04.03-.08.04-.14.01-.07-.03 0-.11-.2-.14 0 0 .04-.03.14-.06.15-.04.26.03.26.03s0 .13-.06.16m.08-.2c-.1-.02-.14-.07-.27-.05a.77.77 0 0 1-.34 0s.13-.03.2-.07c.09-.05.3-.13.58.02 0 0-.08.1-.17.1" fill="#FFF"/>
    <path d="M26.42 41.43a11.52 11.52 0 0 1-7.05 2.36c-2.69 0-5.15-.89-7.05-2.36a11.52 11.52 0 0 1-7.05 2.36 11.7 11.7 0 0 1-3.74-.6c.38.9.84 1.77 1.35 2.6a11.52 11.52 0 0 0 9.44-2.1 11.53 11.53 0 0 0 7.05 2.35c2.7 0 5.15-.89 7.05-2.36a11.53 11.53 0 0 0 9.44 2.1c.52-.82.97-1.69 1.35-2.6a11.8 11.8 0 0 1-10.79-1.75M11.34 18.77l.03-.17c.04-.18.13-.33.13-.33-.2.66.1.9.06.86 0 0-.1-.26.06-.46 0 0-.05.21.01.27 0 0 0-.2.12-.34.1-.13.13-.2.16-.32a.98.98 0 0 1 .1-.3s-.05.09-.06.27a.5.5 0 0 1-.04.22c-.06.19-.19.54.09.73 0 0-.15-.3 0-.49 0 0-.03.3.13.37 0 0-.05-.23.04-.42.06-.12.06-.27.06-.32 0 0 .05.2 0 .33-.05.11-.03.27.05.34 0 0-.06-.1.04-.23.1-.14.16-.3.12-.44-.04-.2-.17-.28.06-.6 0 0-.04.23 0 .37a.35.35 0 0 1 0-.16c.05-.19.1-.14.05-.34-.03-.13.1-.25.1-.25l-.02.09c0 .03.03.08.04.11a.7.7 0 0 1 .02.14c.04-.07.03-.22.02-.33 0-.14.07-.27.07-.27s-.02.05 0 .2l.02.25s.08-.02.09-.21c0-.16.06-.22.05-.36.09.11.03.36.03.36.13-.16.07-.24.05-.37-.02-.11.11-.2.11-.2-.05.06-.03.19.04.2.06 0 .17-.08.17-.08s.22-.05.22-.24c0 0 .1.21.23.04 0 0 0 .07.05.1.19.07.1-.26.1-.26s.05.03.09.08c.1.13.04-.1.04-.1-.13-.24-.63-.35-.87-.37-.24-.03-.51-.05-.79-.03-.38.02-.55.18-.73.33-.17.14-.32.45-.48 1.13-.16.7-.34 1.24-.34 1.33.01.46.45.2.48-.13M15.2 26.77c-.51-.25-.94-.4-.94-.4-.79.2-.3.51-.19.56.36.14.9.42 1.46.78.58.37 1.4.9 1.41.36-.28-.51-1.07-.98-1.73-1.3M9.96 9.02c-.86 0-1.65-.33-2.24-.87a3.92 3.92 0 0 0 6.97-2.45 3.9 3.9 0 0 0-3.9-3.9c-1.23 0-2.36.58-3.07 1.46a3.3 3.3 0 0 1 5.56 2.44 3.32 3.32 0 0 1-3.32 3.32M11.04 20.06c-.03-.24.18-.3.3-.35 0 0-.17 0-.41.2a4.17 4.17 0 0 0-1.05 1.6 7.2 7.2 0 0 0-.35 2.03c-.02.37-.12 1.68-.15 2.52l-.05 1.17L9.27 35l.14-1.73.41-4.2s.2-1.6.24-2.61c.04-1 .12-2.92.16-3.2.04-.28.2-1 .34-1.16l-.2 6.24.07 1.86-.05 3.18.4 2.1c.11.06.3.07.52-.1l-.24-.63-.34-1.87s.1-.01.18-.1a.73.73 0 0 0 .14-.27c.02-.64.63-4.26.84-4.9.22-.63.3-2.27 1.88-3.25 0 0-.18-.19-.5-.24-.32-.05-.24-.08-.24-.08.12-.2-.21-.66-.21-.66-.38-.62-.6-.72-.9-1.07-.4-.46-.03-.6-.03-.6.07.31.19.45.35.67.16.22.58 1 .58 1s.16-1.12-.62-2.04c-.19-.22-.37-.4-.53-.56l-.2-.18a4.68 4.68 0 0 1-.28-.29l-.03-.06a1 1 0 0 0 .31.2c.62.26 1.23.39 1.54.12.1-.07.11-.32.08-.39-.05-.11-.13-.16-.05-.4.03-.07.05-.16-.15-.17a.64.64 0 0 1-.47-.25c-.03-.04-.05-.19-.05-.19s-.09.02-.14 0c0 0-.1.12-.17.08 0 0-.17.1-.35.01l-.26.08c0 .17-.1.37-.1.37l-.3.35m1.06 3.59c.27.64.74.5.74.5-.9.42-1.23 2-1.23 2 .08-1.3.67-1.65.49-2.5m-.66-2.87l-.27-.12c-.13-.06-.32-.13-.42-.33-.06-.15.1-.35.19-.41 0 0-.26.28.5.86M19.37 52.78c-2.69 0-5.15-.88-7.05-2.35-.92.71-1.97 1.28-3.12 1.69.71.44 1.46.83 2.23 1.18.3-.19.6-.4.89-.62A11.53 11.53 0 0 0 19.37 55c2.7 0 5.15-.85 7.06-2.32.28.22.57.43.88.62.77-.35 1.52-.74 2.23-1.18a11.1 11.1 0 0 1-3.11-1.69 11.54 11.54 0 0 1-7.06 2.35" fill="#FFF"/>
    <g transform="translate(0 15.71)">
      <mask id="d" fill="#fff">
        <use xlink:href="#c"/>
      </mask>
      <path d="M25.83 3.15c-.05-.11-.06-.4-.1-.57-.03-.1-.13-.23-.22-.36 0 0 .1.12.28.23.17.1.31.33.32.42 0 0-.06-.09-.17-.07-.09.01-.14.2-.11.35.17.2.21-.07.21-.07s.08.06.04.17c0 0 .11.12.24-.04.09-.1.1-.47-.3-.76-.4-.28-.38-.5-.38-.5s.11.17.34.26c.22.09.32.2.39.35 0 0-.04-.08-.24-.11 0 0 .47.48.32.79 0 0 .2-.17.07-.44 0 0 .15.12.15.24 0 0 .15-.2-.18-.54-.17-.19-.15-.28-.2-.34-.03-.07-.07-.1-.18-.22-.11-.11-.12-.24-.18-.4 0 0 .03.1.16.18 0 0 .05-.31-.06-.45 0 0 .11.13.15.26.03.12.1.26.16.33.06.08.12.19.1.39-.03.2.15.25.2.3.04.04.25.2.22.47 0 0 .12-.18-.07-.49-.18-.3-.1-.38-.09-.41 0 0 .04.2.2.27 0 0 .05-.11-.22-.43-.28-.32-.46-.63-.45-1.01 0 0 .01.14.23.27 0 0-.08-.19-.1-.3-.04-.13-.1-.57-.79-.7a3.6 3.6 0 0 0-1.28.27c-.2.14-.43.41-.4.72 0 .06.15.37.2.4v.2c0 .05-.06.15-.01.18.02.02.03.06.03.1 0 .12-.12.57-.12.65 0 .08.02.19.16.17a.5.5 0 0 0 .13-.04v.2c.05-.06.12-.05.18-.05l.27.02-.25.06c-.1.01-.14 0-.14 0l-.02.1s.22-.01.32-.1c0 0-.06.11-.14.15-.1.04-.14-.04-.18-.05 0 0 .1.03.1.15.02.12-.05.3.14.31a3.1 3.1 0 0 0 .57 0c.1-.03.62-.25.7-.5m-1.11-1.13c-.07.06-.02.17-.17.18-.13 0-.17-.2-.17-.2s.16-.07.29-.06c.12 0 .16.04.16.04s-.07 0-.11.04m-.43-.04c-.08 0-.14-.04-.14-.04.14-.1.37-.18.5-.18a.4.4 0 0 1 .33.18c-.4-.15-.6.04-.69.04m.76-.5c-.07-.01-.3.08-.53 0-.22 0-.46-.26-.46-.26-.01-.07 0-.09.05-.07.04.01.07.09.1.14.04.05.14.13.31.18 0-.11-.07-.18-.07-.18s.1.1.19.12c.57.13.27-.14.27-.14.42.19.3.41.4.65-.05-.07-.06-.18-.1-.27-.08-.15-.16-.17-.16-.17M35.24 22.78h-3.53v-2.16H28.2v2.16h-3.53v-2.16h-3.53v2.16h-3.52v-2.16h-3.53v2.16h-3.53v-2.16H7.03v2.16H3.5v-2.16H0c.06 1.47.27 2.9.63 4.27 1.41.6 2.97.93 4.62.93 2.7 0 5.15-.88 7.05-2.35a11.54 11.54 0 0 0 7.06 2.35c2.7 0 5.15-.88 7.06-2.35a11.53 11.53 0 0 0 7.05 2.35c1.65 0 3.21-.33 4.61-.93.37-1.37.58-2.8.64-4.27h-3.49v2.16" fill="#FFF" mask="url(#d)"/>
    </g>
    <path d="M11.98 20.75c-.21-.04-.15.1-.08.17.42.42 1.08 1.27 1.1 2.02 0 0 .5.19.58-.53.05-.42-.1-1.14-.17-1.34l.2.5c.22.57.14.77.23 1.29.04-.1.06-.24.07-.38l.02-.38c.02-.39 0-.72-.06-.87a1.54 1.54 0 0 0-.15-.31l-.54-.69a.6.6 0 0 1-.18.34c-.2.23-.6.26-1.02.18M25.16 20.58a3 3 0 0 0 .64.12c.23-.03.46-.08.6-.17a1.56 1.56 0 0 0 .47-.53l.03-.07c.02-.09.03-.27-.23-.46-.1-.08-.22-.34-.23-.36-.1.04-.2-.04-.2-.04-.14.04-.2-.05-.2-.05-.05.02-.16 0-.21-.15.06.21-.38.42-.54.62-.14.17-.23-.04-.31.06 0 .13.05.17.05.24 0 0 0 .23-.02.3-.03.13-.08.44.15.5M28.21 35.25c-.03-.15-.1-.13-.25-.07-.12.05-.33-.05-.46-.08s-.14.01-.25.03a.7.7 0 0 1-.27-.01c-.32-.04-.3.3-.3.3l.06.12c.08.06.15.07.2.1.04.02.03.05.06.09 0 0 .4.3.64.04.05-.12-.25-.31-.22-.3 0 0 .15.08.25.19s.24.19.34.09c.08-.14-.24-.35-.24-.35s.15.07.25.19.18.16.22 0c-.06-.14-.21-.25-.21-.25l.14.1c.1.1.17.07.15-.09-.02-.04-.11-.1-.11-.1M49.58 17.44l-.96 3h1.93l-.97-3zm2.05 6.4l-.65-2.05H48.2l-.68 2.05h-1.66l3-8.3h1.42l3.01 8.3h-1.66zM57.4 17.44l-.95 3h1.93l-.97-3zm2.06 6.4l-.66-2.05h-2.78l-.68 2.05H53.7l3-8.3h1.42l3 8.3h-1.65zM64.68 16.89h-1.03v2.29h1.03c1 0 1.44-.36 1.44-1.19 0-.79-.41-1.1-1.44-1.1zm1.66 6.95l-1.9-3.32h-.8v3.32h-1.58v-8.3h2.77c1.2 0 1.76.15 2.25.62.45.41.68 1.02.68 1.8 0 .64-.15 1.15-.45 1.55-.32.4-.6.58-1.3.77l2.07 3.56h-1.74zM75.12 23.84v-3.56h-4.27v3.56h-1.58v-8.3h1.58v3.32h4.27v-3.32h1.58v8.3h-1.58M84.39 23.4c-.6.42-1.3.6-2.34.6a3.86 3.86 0 0 1-2.35-.6c-.86-.59-1.13-1.28-1.13-2.8v-5.06h1.57v5.14c0 1.24.64 1.85 1.96 1.85 1.2 0 1.85-.65 1.85-1.85v-5.14h1.59v5.06c0 1.52-.28 2.2-1.15 2.8M92.05 17.52c-.88-.4-1.6-.6-2.15-.6-.74 0-1.22.3-1.22.77 0 .35.2.57.8.88 1.26.68 2.1 1.21 2.48 1.6.36.35.57.9.57 1.48 0 1.49-1.08 2.36-2.92 2.36a4.95 4.95 0 0 1-2.48-.63l-.54-.26.67-1.45c.6.32.85.45 1.18.57.42.16.87.24 1.2.24.73 0 1.2-.32 1.2-.83 0-.35-.18-.59-.72-.89l-1.29-.73c-1.47-.84-1.92-1.4-1.92-2.3 0-.42.12-.84.32-1.16.14-.21.36-.43.62-.61.6-.42 1.12-.56 2.09-.56a5.37 5.37 0 0 1 2.74.7l-.63 1.42M50.2 35.63l-2.76-3.95v3.95h-1.58v-8.3h1.58v3.87l2.6-3.87h1.83l-2.86 4.03 3.01 4.27h-1.81M56.41 28.55c-1.57 0-2.73 1.25-2.73 2.93 0 1.68 1.16 2.93 2.73 2.93 1.56 0 2.72-1.25 2.72-2.93 0-1.68-1.16-2.93-2.72-2.93zm0 7.24C53.82 35.79 52 34 52 31.48c0-2.57 1.78-4.3 4.41-4.3 2.62 0 4.4 1.73 4.4 4.3 0 2.52-1.82 4.31-4.4 4.31zM69.34 35.63v-6.09c-.06.43-.05.5-.31 1.18l-1.9 4.9h-1.42l-1.74-4.81c-.17-.48-.18-.61-.31-1.32v6.14h-1.44v-8.3h1.9l2.22 5.92c.09.24.12.33.16.64.05-.39.08-.44.15-.64l2.3-5.92h1.9v8.3h-1.5M80.04 35.63v-6.09c-.06.43-.05.5-.31 1.18l-1.9 4.9H76.4l-1.74-4.81c-.17-.48-.19-.61-.31-1.32v6.14h-1.44v-8.3h1.9l2.22 5.92c.08.24.12.33.16.64.05-.39.08-.44.15-.64l2.3-5.92h1.9v8.3h-1.5M89.28 35.19c-.6.41-1.3.6-2.33.6a3.86 3.86 0 0 1-2.36-.6c-.85-.6-1.13-1.29-1.13-2.8v-5.06h1.57v5.14c0 1.23.65 1.85 1.97 1.85 1.2 0 1.84-.66 1.84-1.85v-5.14h1.59v5.05c0 1.52-.28 2.2-1.15 2.8M97.8 35.7l-3.57-5.37-.17-.32-.1-.18c-.05-.1-.08-.15-.12-.29v6.09h-1.5v-8.3h1.82l3.48 5.46.09.17.07.16.08.22.08.15v-6.16h1.5v8.37h-1.67M101.49 35.63v-8.3h5.05v1.34h-3.47v2.05h2.84v1.35h-2.84v2.21h3.64v1.35h-5.22" fill="#FFF"/>
  </g>
</svg>
